%TF.GenerationSoftware,KiCad,Pcbnew,5.1.9-73d0e3b20d~88~ubuntu20.04.1*%
%TF.CreationDate,2021-04-29T12:20:41+03:00*%
%TF.ProjectId,eeg,6565672e-6b69-4636-9164-5f7063625858,rev?*%
%TF.SameCoordinates,Original*%
%TF.FileFunction,Soldermask,Bot*%
%TF.FilePolarity,Negative*%
%FSLAX46Y46*%
G04 Gerber Fmt 4.6, Leading zero omitted, Abs format (unit mm)*
G04 Created by KiCad (PCBNEW 5.1.9-73d0e3b20d~88~ubuntu20.04.1) date 2021-04-29 12:20:41*
%MOMM*%
%LPD*%
G01*
G04 APERTURE LIST*
%ADD10O,1.800000X1.800000*%
%ADD11O,1.100000X1.100000*%
G04 APERTURE END LIST*
D10*
%TO.C,J4*%
X111925000Y-64585000D03*
X111925000Y-62045000D03*
X111925000Y-59505000D03*
X111925000Y-56965000D03*
G36*
G01*
X111025000Y-55275000D02*
X111025000Y-53575000D01*
G75*
G02*
X111075000Y-53525000I50000J0D01*
G01*
X112775000Y-53525000D01*
G75*
G02*
X112825000Y-53575000I0J-50000D01*
G01*
X112825000Y-55275000D01*
G75*
G02*
X112775000Y-55325000I-50000J0D01*
G01*
X111075000Y-55325000D01*
G75*
G02*
X111025000Y-55275000I0J50000D01*
G01*
G37*
%TD*%
D11*
%TO.C,J5*%
X77724000Y-52070000D03*
X77724000Y-53340000D03*
X77724000Y-54610000D03*
X77724000Y-55880000D03*
X77724000Y-57150000D03*
X77724000Y-58420000D03*
X77724000Y-59690000D03*
X77724000Y-60960000D03*
X77724000Y-62230000D03*
G36*
G01*
X78274000Y-63000000D02*
X78274000Y-64000000D01*
G75*
G02*
X78224000Y-64050000I-50000J0D01*
G01*
X77224000Y-64050000D01*
G75*
G02*
X77174000Y-64000000I0J50000D01*
G01*
X77174000Y-63000000D01*
G75*
G02*
X77224000Y-62950000I50000J0D01*
G01*
X78224000Y-62950000D01*
G75*
G02*
X78274000Y-63000000I0J-50000D01*
G01*
G37*
%TD*%
D10*
%TO.C,E2*%
X41350000Y-83035000D03*
X41350000Y-80495000D03*
X41350000Y-77955000D03*
X41350000Y-75415000D03*
X41350000Y-72875000D03*
X41350000Y-70335000D03*
X41350000Y-67795000D03*
X41350000Y-65255000D03*
X41350000Y-62715000D03*
G36*
G01*
X40450000Y-61025000D02*
X40450000Y-59325000D01*
G75*
G02*
X40500000Y-59275000I50000J0D01*
G01*
X42200000Y-59275000D01*
G75*
G02*
X42250000Y-59325000I0J-50000D01*
G01*
X42250000Y-61025000D01*
G75*
G02*
X42200000Y-61075000I-50000J0D01*
G01*
X40500000Y-61075000D01*
G75*
G02*
X40450000Y-61025000I0J50000D01*
G01*
G37*
%TD*%
%TO.C,E1*%
G36*
G01*
X40500000Y-32594999D02*
X40500000Y-30894999D01*
G75*
G02*
X40550000Y-30844999I50000J0D01*
G01*
X42250000Y-30844999D01*
G75*
G02*
X42300000Y-30894999I0J-50000D01*
G01*
X42300000Y-32594999D01*
G75*
G02*
X42250000Y-32644999I-50000J0D01*
G01*
X40550000Y-32644999D01*
G75*
G02*
X40500000Y-32594999I0J50000D01*
G01*
G37*
X41400000Y-34284999D03*
X41400000Y-36824999D03*
X41400000Y-39364999D03*
X41400000Y-41904999D03*
X41400000Y-44444999D03*
X41400000Y-46984999D03*
X41400000Y-49524999D03*
X41400000Y-52064999D03*
X41400000Y-54604999D03*
%TD*%
%TO.C,J1*%
G36*
G01*
X59225000Y-78825000D02*
X57525000Y-78825000D01*
G75*
G02*
X57475000Y-78775000I0J50000D01*
G01*
X57475000Y-77075000D01*
G75*
G02*
X57525000Y-77025000I50000J0D01*
G01*
X59225000Y-77025000D01*
G75*
G02*
X59275000Y-77075000I0J-50000D01*
G01*
X59275000Y-78775000D01*
G75*
G02*
X59225000Y-78825000I-50000J0D01*
G01*
G37*
X60915000Y-77925000D03*
X63455000Y-77925000D03*
X65995000Y-77925000D03*
X68535000Y-77925000D03*
%TD*%
%TO.C,J2*%
X66510000Y-31732000D03*
X63970000Y-31732000D03*
X61430000Y-31732000D03*
X58890000Y-31732000D03*
G36*
G01*
X57200000Y-32632000D02*
X55500000Y-32632000D01*
G75*
G02*
X55450000Y-32582000I0J50000D01*
G01*
X55450000Y-30882000D01*
G75*
G02*
X55500000Y-30832000I50000J0D01*
G01*
X57200000Y-30832000D01*
G75*
G02*
X57250000Y-30882000I0J-50000D01*
G01*
X57250000Y-32582000D01*
G75*
G02*
X57200000Y-32632000I-50000J0D01*
G01*
G37*
%TD*%
%TO.C,J3*%
G36*
G01*
X82975000Y-32632000D02*
X81275000Y-32632000D01*
G75*
G02*
X81225000Y-32582000I0J50000D01*
G01*
X81225000Y-30882000D01*
G75*
G02*
X81275000Y-30832000I50000J0D01*
G01*
X82975000Y-30832000D01*
G75*
G02*
X83025000Y-30882000I0J-50000D01*
G01*
X83025000Y-32582000D01*
G75*
G02*
X82975000Y-32632000I-50000J0D01*
G01*
G37*
X84665000Y-31732000D03*
X87205000Y-31732000D03*
X89745000Y-31732000D03*
X92285000Y-31732000D03*
%TD*%
M02*
