%TF.GenerationSoftware,KiCad,Pcbnew,5.1.9-73d0e3b20d~88~ubuntu20.04.1*%
%TF.CreationDate,2021-04-29T12:20:41+03:00*%
%TF.ProjectId,eeg,6565672e-6b69-4636-9164-5f7063625858,rev?*%
%TF.SameCoordinates,Original*%
%TF.FileFunction,Copper,L2,Bot*%
%TF.FilePolarity,Positive*%
%FSLAX46Y46*%
G04 Gerber Fmt 4.6, Leading zero omitted, Abs format (unit mm)*
G04 Created by KiCad (PCBNEW 5.1.9-73d0e3b20d~88~ubuntu20.04.1) date 2021-04-29 12:20:41*
%MOMM*%
%LPD*%
G01*
G04 APERTURE LIST*
%TA.AperFunction,ComponentPad*%
%ADD10O,1.700000X1.700000*%
%TD*%
%TA.AperFunction,ComponentPad*%
%ADD11R,1.700000X1.700000*%
%TD*%
%TA.AperFunction,ComponentPad*%
%ADD12O,1.000000X1.000000*%
%TD*%
%TA.AperFunction,ComponentPad*%
%ADD13R,1.000000X1.000000*%
%TD*%
%TA.AperFunction,ViaPad*%
%ADD14C,0.800000*%
%TD*%
%TA.AperFunction,ViaPad*%
%ADD15C,1.200000*%
%TD*%
%TA.AperFunction,ViaPad*%
%ADD16C,1.000000*%
%TD*%
%TA.AperFunction,Conductor*%
%ADD17C,0.400000*%
%TD*%
%TA.AperFunction,Conductor*%
%ADD18C,0.250000*%
%TD*%
%TA.AperFunction,Conductor*%
%ADD19C,0.254000*%
%TD*%
%TA.AperFunction,Conductor*%
%ADD20C,0.100000*%
%TD*%
G04 APERTURE END LIST*
D10*
%TO.P,J4,5*%
%TO.N,GNDA*%
X111925000Y-64585000D03*
%TO.P,J4,4*%
%TO.N,SWDIO*%
X111925000Y-62045000D03*
%TO.P,J4,3*%
%TO.N,SWCLK*%
X111925000Y-59505000D03*
%TO.P,J4,2*%
%TO.N,+3V3*%
X111925000Y-56965000D03*
D11*
%TO.P,J4,1*%
X111925000Y-54425000D03*
%TD*%
D12*
%TO.P,J5,10*%
%TO.N,GNDA*%
X77724000Y-52070000D03*
%TO.P,J5,9*%
X77724000Y-53340000D03*
%TO.P,J5,8*%
%TO.N,SCLK*%
X77724000Y-54610000D03*
%TO.P,J5,7*%
%TO.N,CS*%
X77724000Y-55880000D03*
%TO.P,J5,6*%
%TO.N,MISO*%
X77724000Y-57150000D03*
%TO.P,J5,5*%
%TO.N,MOSI*%
X77724000Y-58420000D03*
%TO.P,J5,4*%
%TO.N,START*%
X77724000Y-59690000D03*
%TO.P,J5,3*%
%TO.N,/CLK*%
X77724000Y-60960000D03*
%TO.P,J5,2*%
%TO.N,RESET*%
X77724000Y-62230000D03*
D13*
%TO.P,J5,1*%
%TO.N,PWDN*%
X77724000Y-63500000D03*
%TD*%
D10*
%TO.P,E2,10*%
%TO.N,/CSRB2*%
X41350000Y-83035000D03*
%TO.P,E2,9*%
%TO.N,/CSRB1*%
X41350000Y-80495000D03*
%TO.P,E2,8*%
%TO.N,/CIN1P*%
X41350000Y-77955000D03*
%TO.P,E2,7*%
%TO.N,/CIN1N*%
X41350000Y-75415000D03*
%TO.P,E2,6*%
%TO.N,/CIN2P*%
X41350000Y-72875000D03*
%TO.P,E2,5*%
%TO.N,/CIN2N*%
X41350000Y-70335000D03*
%TO.P,E2,4*%
%TO.N,/CIN3P*%
X41350000Y-67795000D03*
%TO.P,E2,3*%
%TO.N,/CIN3N*%
X41350000Y-65255000D03*
%TO.P,E2,2*%
%TO.N,/CIN4P*%
X41350000Y-62715000D03*
D11*
%TO.P,E2,1*%
%TO.N,/CIN4N*%
X41350000Y-60175000D03*
%TD*%
%TO.P,E1,1*%
%TO.N,/BIASINV*%
X41400000Y-31744999D03*
D10*
%TO.P,E1,2*%
%TO.N,/CBIAS*%
X41400000Y-34284999D03*
%TO.P,E1,3*%
%TO.N,/CIN8N*%
X41400000Y-36824999D03*
%TO.P,E1,4*%
%TO.N,/CIN8P*%
X41400000Y-39364999D03*
%TO.P,E1,5*%
%TO.N,/CIN7N*%
X41400000Y-41904999D03*
%TO.P,E1,6*%
%TO.N,/CIN7P*%
X41400000Y-44444999D03*
%TO.P,E1,7*%
%TO.N,/CIN6N*%
X41400000Y-46984999D03*
%TO.P,E1,8*%
%TO.N,/CIN6P*%
X41400000Y-49524999D03*
%TO.P,E1,9*%
%TO.N,/CIN5N*%
X41400000Y-52064999D03*
%TO.P,E1,10*%
%TO.N,/CIN5P*%
X41400000Y-54604999D03*
%TD*%
D11*
%TO.P,J1,1*%
%TO.N,GNDA*%
X58375000Y-77925000D03*
D10*
%TO.P,J1,2*%
X60915000Y-77925000D03*
%TO.P,J1,3*%
%TO.N,VREFP*%
X63455000Y-77925000D03*
%TO.P,J1,4*%
X65995000Y-77925000D03*
%TO.P,J1,5*%
X68535000Y-77925000D03*
%TD*%
%TO.P,J2,5*%
%TO.N,GNDA*%
X66510000Y-31732000D03*
%TO.P,J2,4*%
X63970000Y-31732000D03*
%TO.P,J2,3*%
%TO.N,+3V3*%
X61430000Y-31732000D03*
%TO.P,J2,2*%
%TO.N,-2V5*%
X58890000Y-31732000D03*
D11*
%TO.P,J2,1*%
%TO.N,+2V5*%
X56350000Y-31732000D03*
%TD*%
%TO.P,J3,1*%
%TO.N,+5V*%
X82125000Y-31732000D03*
D10*
%TO.P,J3,2*%
X84665000Y-31732000D03*
%TO.P,J3,3*%
X87205000Y-31732000D03*
%TO.P,J3,4*%
%TO.N,GNDA*%
X89745000Y-31732000D03*
%TO.P,J3,5*%
X92285000Y-31732000D03*
%TD*%
D14*
%TO.N,+5V*%
X59690000Y-37338000D03*
D15*
X80750000Y-42650000D03*
X81850000Y-36450000D03*
D16*
%TO.N,+3V3*%
X95475000Y-45800000D03*
D15*
X74200000Y-50750000D03*
D16*
X83000000Y-61000000D03*
D14*
X85200000Y-63000000D03*
X81650000Y-50700000D03*
D15*
X107875000Y-31275000D03*
X74900000Y-66775000D03*
D14*
X91400000Y-49900000D03*
D15*
X68925000Y-50250000D03*
%TO.N,+2V5*%
X62100000Y-43700000D03*
D14*
X69088000Y-44196000D03*
D15*
X94175000Y-43150000D03*
D14*
%TO.N,Net-(R26-Pad2)*%
X87300000Y-60800000D03*
X82800000Y-65400000D03*
D16*
%TO.N,/CLK*%
X80100000Y-60700000D03*
D15*
X78900000Y-66550000D03*
D14*
%TO.N,-2V5*%
X70075000Y-47275000D03*
D15*
X62150000Y-65225000D03*
X61011900Y-71800000D03*
X63175000Y-50075000D03*
D16*
%TO.N,MISO*%
X71372814Y-55605056D03*
D15*
%TO.N,MOSI*%
X72500000Y-61200000D03*
D16*
%TO.N,CS*%
X80950000Y-57625000D03*
D15*
X82750000Y-53500000D03*
%TO.N,Net-(C83-Pad1)*%
X103675000Y-74400000D03*
D14*
X90225000Y-60900000D03*
%TO.N,/RN46RTS*%
X93400000Y-61050000D03*
D16*
X93750000Y-49000000D03*
D15*
%TO.N,Net-(C105-Pad1)*%
X67275000Y-42450000D03*
X79800000Y-37825000D03*
%TO.N,-5V*%
X79502000Y-39624000D03*
D14*
X70358000Y-43180000D03*
X78400000Y-48250000D03*
%TO.N,/RN46CTS*%
X94675000Y-61100000D03*
D16*
X95225000Y-48950000D03*
D14*
%TO.N,GNDA*%
X71100000Y-62300000D03*
X90350000Y-42300000D03*
X51700000Y-54660800D03*
D16*
X51650000Y-60150000D03*
D15*
X51663600Y-62700000D03*
X51663600Y-65250000D03*
X51663600Y-67780000D03*
X51663600Y-72870000D03*
X51663600Y-75387200D03*
X51663600Y-77950000D03*
X51663600Y-80505300D03*
X51663600Y-82956400D03*
X51675000Y-52025000D03*
X51700000Y-49475000D03*
X51700000Y-46950000D03*
X51675000Y-44420000D03*
X51675000Y-41900000D03*
D14*
X51700000Y-34260000D03*
X56075000Y-37750000D03*
D15*
X69342000Y-42418000D03*
D14*
X60370000Y-42320000D03*
D16*
X68025000Y-45275000D03*
D15*
X51700000Y-36825000D03*
X51650000Y-39370000D03*
X68500000Y-65100000D03*
X97600000Y-63050000D03*
X101100000Y-64000000D03*
D14*
X89200000Y-49650000D03*
D15*
X86350000Y-68800000D03*
X81980000Y-48050000D03*
X51663600Y-70340000D03*
X87750000Y-43275000D03*
X71900000Y-68025000D03*
X80525000Y-69275000D03*
D14*
X70875000Y-49250000D03*
%TO.N,SWCLK*%
X90925000Y-54325000D03*
%TO.N,SWDIO*%
X92075000Y-53800000D03*
D15*
%TO.N,Net-(R31-Pad2)*%
X100200000Y-48000000D03*
X97250000Y-32450000D03*
%TD*%
D17*
%TO.N,+5V*%
X81850000Y-41550000D02*
X80750000Y-42650000D01*
X81850000Y-36450000D02*
X81850000Y-41550000D01*
%TO.N,+3V3*%
X95700000Y-45800000D02*
X95700000Y-47300000D01*
X97600000Y-49200000D02*
X95700000Y-47300000D01*
X108890000Y-49200000D02*
X97600000Y-49200000D01*
X80988000Y-50038000D02*
X81650000Y-50700000D01*
X95700000Y-39905998D02*
X89694003Y-33900001D01*
X95700000Y-45800000D02*
X95700000Y-39905998D01*
X74912000Y-50038000D02*
X74200000Y-50750000D01*
X80988000Y-50038000D02*
X74912000Y-50038000D01*
X96815998Y-31275000D02*
X107875000Y-31275000D01*
X95700000Y-32390998D02*
X96815998Y-31275000D01*
X95700000Y-39905998D02*
X95700000Y-32390998D01*
X85000000Y-63000000D02*
X83000000Y-61000000D01*
X85200000Y-63000000D02*
X85000000Y-63000000D01*
X95700000Y-47300000D02*
X93975000Y-47300000D01*
X91400000Y-49875000D02*
X91400000Y-49900000D01*
X93975000Y-47300000D02*
X91400000Y-49875000D01*
X82000011Y-51050011D02*
X81650000Y-50700000D01*
X90249989Y-51050011D02*
X82000011Y-51050011D01*
X91400000Y-49900000D02*
X90249989Y-51050011D01*
D18*
X69425000Y-50750000D02*
X68925000Y-50250000D01*
X74200000Y-50750000D02*
X69425000Y-50750000D01*
X111823001Y-54673001D02*
X112268000Y-55118000D01*
D17*
X63598001Y-33900001D02*
X61430000Y-31732000D01*
X89694003Y-33900001D02*
X63598001Y-33900001D01*
X111925000Y-52235000D02*
X111925000Y-54425000D01*
X108890000Y-49200000D02*
X111925000Y-52235000D01*
X76225001Y-68100001D02*
X74900000Y-66775000D01*
X81999999Y-65484003D02*
X79384001Y-68100001D01*
X81999999Y-65015999D02*
X81999999Y-65484003D01*
X84015998Y-63000000D02*
X81999999Y-65015999D01*
X79384001Y-68100001D02*
X76225001Y-68100001D01*
X85200000Y-63000000D02*
X84015998Y-63000000D01*
D18*
X95475000Y-45800000D02*
X95700000Y-45800000D01*
D17*
%TO.N,+2V5*%
X74131001Y-49239001D02*
X69088000Y-44196000D01*
X60565998Y-43700000D02*
X57440000Y-40574002D01*
X62100000Y-43700000D02*
X60565998Y-43700000D01*
X89584001Y-50450001D02*
X82584003Y-50450001D01*
X81373003Y-49239001D02*
X79589001Y-49239001D01*
X82584003Y-50450001D02*
X81373003Y-49239001D01*
X94175000Y-45859002D02*
X89584001Y-50450001D01*
X94175000Y-43150000D02*
X94175000Y-45859002D01*
X79589001Y-49239001D02*
X74131001Y-49239001D01*
X80046999Y-49239001D02*
X79589001Y-49239001D01*
X57440000Y-37930998D02*
X57440000Y-40574002D01*
X56350000Y-36840998D02*
X57440000Y-37930998D01*
X56350000Y-31732000D02*
X56350000Y-36840998D01*
D18*
%TO.N,Net-(R26-Pad2)*%
X83873002Y-65400000D02*
X82800000Y-65400000D01*
X87300000Y-61973002D02*
X83873002Y-65400000D01*
X87300000Y-60800000D02*
X87300000Y-61973002D01*
%TO.N,/CLK*%
X79875000Y-66550000D02*
X78900000Y-66550000D01*
X80100000Y-66325000D02*
X79875000Y-66550000D01*
X80100000Y-60700000D02*
X80100000Y-66325000D01*
%TO.N,-2V5*%
X61011900Y-66363100D02*
X61011900Y-71800000D01*
X62150000Y-65225000D02*
X61011900Y-66363100D01*
D17*
X60490001Y-39068003D02*
X68546998Y-47125000D01*
D18*
X69925000Y-47125000D02*
X70075000Y-47275000D01*
X68546998Y-47125000D02*
X69925000Y-47125000D01*
D17*
X69525000Y-47825000D02*
X70075000Y-47275000D01*
X69525000Y-48775000D02*
X69525000Y-47825000D01*
X63575000Y-48775000D02*
X69525000Y-48775000D01*
X63175000Y-49175000D02*
X63575000Y-48775000D01*
X63175000Y-50075000D02*
X63175000Y-49175000D01*
X60490001Y-33332001D02*
X60490001Y-39068003D01*
X58890000Y-31732000D02*
X60490001Y-33332001D01*
D18*
%TO.N,MISO*%
X76179056Y-55605056D02*
X77724000Y-57150000D01*
X71372814Y-55605056D02*
X76179056Y-55605056D01*
%TO.N,MOSI*%
X75330000Y-58420000D02*
X77724000Y-58420000D01*
X75280000Y-58420000D02*
X72500000Y-61200000D01*
X75330000Y-58420000D02*
X75280000Y-58420000D01*
%TO.N,CS*%
X81250000Y-55000000D02*
X82750000Y-53500000D01*
X81250000Y-57325000D02*
X80950000Y-57625000D01*
X81250000Y-55000000D02*
X81250000Y-57325000D01*
%TO.N,Net-(C83-Pad1)*%
X103675000Y-74400000D02*
X103675000Y-64601998D01*
X90325000Y-61000000D02*
X90225000Y-60900000D01*
X90225000Y-60900000D02*
X91225000Y-61900000D01*
X91225000Y-61900000D02*
X100973002Y-61900000D01*
X100973002Y-61900000D02*
X103675000Y-64601998D01*
%TO.N,/RN46RTS*%
X89749989Y-53000011D02*
X93750000Y-49000000D01*
X89749989Y-57399989D02*
X89749989Y-53000011D01*
X93400000Y-61050000D02*
X89749989Y-57399989D01*
%TO.N,Net-(C105-Pad1)*%
X67275000Y-40929000D02*
X68177000Y-40027000D01*
X67275000Y-42450000D02*
X67275000Y-40929000D01*
X68177000Y-40027000D02*
X70358000Y-37846000D01*
X68072000Y-40132000D02*
X68177000Y-40027000D01*
X70379000Y-37825000D02*
X70358000Y-37846000D01*
X79800000Y-37825000D02*
X70379000Y-37825000D01*
%TO.N,-5V*%
X79502000Y-39624000D02*
X71374000Y-39624000D01*
X70358000Y-40640000D02*
X70358000Y-43180000D01*
X71374000Y-39624000D02*
X70358000Y-40640000D01*
X70358000Y-43180000D02*
X70358000Y-43942000D01*
D17*
X70358000Y-43942000D02*
X74930000Y-48514000D01*
X78136000Y-48514000D02*
X78400000Y-48250000D01*
X74930000Y-48514000D02*
X78136000Y-48514000D01*
D18*
%TO.N,/RN46CTS*%
X90199999Y-53847906D02*
X95097905Y-48950000D01*
X90199999Y-56624999D02*
X90199999Y-53847906D01*
X95097905Y-48950000D02*
X95225000Y-48950000D01*
X94675000Y-61100000D02*
X90199999Y-56624999D01*
%TO.N,GNDA*%
X51700000Y-82920000D02*
X51610000Y-83010000D01*
X51699100Y-77950000D02*
X51700000Y-77950900D01*
X51700000Y-77950900D02*
X51700000Y-82920000D01*
X51700000Y-34260000D02*
X51700000Y-77950900D01*
X55125000Y-36800000D02*
X56075000Y-37750000D01*
X51700000Y-36800000D02*
X55125000Y-36800000D01*
X71100000Y-62500000D02*
X71100000Y-62300000D01*
X68500000Y-65100000D02*
X71100000Y-62500000D01*
X97600000Y-63050000D02*
X98550000Y-64000000D01*
X88070000Y-48520000D02*
X89200000Y-49650000D01*
X102000000Y-64000000D02*
X102000000Y-66450000D01*
X99650000Y-68800000D02*
X86350000Y-68800000D01*
X102000000Y-66450000D02*
X99650000Y-68800000D01*
X89375000Y-43275000D02*
X90350000Y-42300000D01*
X87750000Y-43275000D02*
X89375000Y-43275000D01*
X73150000Y-69275000D02*
X80525000Y-69275000D01*
X71900000Y-68025000D02*
X73150000Y-69275000D01*
D17*
X69196002Y-45212000D02*
X67818000Y-45212000D01*
X70875001Y-46890999D02*
X69196002Y-45212000D01*
X70875000Y-49250000D02*
X70875001Y-46890999D01*
X51701300Y-77925000D02*
X51676300Y-77950000D01*
X58375000Y-77925000D02*
X51701300Y-77925000D01*
D18*
X68025000Y-44185998D02*
X69342000Y-42868998D01*
X69342000Y-42868998D02*
X69342000Y-42418000D01*
X68025000Y-45275000D02*
X68025000Y-44185998D01*
X98550000Y-64000000D02*
X101100000Y-64000000D01*
X101100000Y-64000000D02*
X102000000Y-64000000D01*
X82450000Y-48520000D02*
X81980000Y-48050000D01*
X88070000Y-48520000D02*
X82450000Y-48520000D01*
%TO.N,SWCLK*%
X90925000Y-54325000D02*
X90925000Y-53759315D01*
X90925000Y-53759315D02*
X91609316Y-53074999D01*
X95399990Y-53349990D02*
X103424990Y-53349990D01*
X95124999Y-53074999D02*
X95399990Y-53349990D01*
X91609316Y-53074999D02*
X95124999Y-53074999D01*
X109580000Y-59505000D02*
X111925000Y-59505000D01*
X103424990Y-53349990D02*
X109580000Y-59505000D01*
%TO.N,SWDIO*%
X92075000Y-53800000D02*
X101375000Y-53800000D01*
X109620000Y-62045000D02*
X111925000Y-62045000D01*
X101375000Y-53800000D02*
X109620000Y-62045000D01*
%TO.N,Net-(R31-Pad2)*%
X96825000Y-44625000D02*
X100200000Y-48000000D01*
X96825000Y-32875000D02*
X97250000Y-32450000D01*
X96825000Y-44625000D02*
X96825000Y-32875000D01*
%TD*%
D19*
%TO.N,GNDA*%
X39960498Y-30650819D02*
X39924188Y-30770517D01*
X39911928Y-30894999D01*
X39911928Y-32594999D01*
X39924188Y-32719481D01*
X39960498Y-32839179D01*
X40019463Y-32949493D01*
X40098815Y-33046184D01*
X40195506Y-33125536D01*
X40305820Y-33184501D01*
X40378380Y-33206512D01*
X40246525Y-33338367D01*
X40084010Y-33581588D01*
X39972068Y-33851841D01*
X39915000Y-34138739D01*
X39915000Y-34431259D01*
X39972068Y-34718157D01*
X40084010Y-34988410D01*
X40246525Y-35231631D01*
X40453368Y-35438474D01*
X40627760Y-35554999D01*
X40453368Y-35671524D01*
X40246525Y-35878367D01*
X40084010Y-36121588D01*
X39972068Y-36391841D01*
X39915000Y-36678739D01*
X39915000Y-36971259D01*
X39972068Y-37258157D01*
X40084010Y-37528410D01*
X40246525Y-37771631D01*
X40453368Y-37978474D01*
X40627760Y-38094999D01*
X40453368Y-38211524D01*
X40246525Y-38418367D01*
X40084010Y-38661588D01*
X39972068Y-38931841D01*
X39915000Y-39218739D01*
X39915000Y-39511259D01*
X39972068Y-39798157D01*
X40084010Y-40068410D01*
X40246525Y-40311631D01*
X40453368Y-40518474D01*
X40627760Y-40634999D01*
X40453368Y-40751524D01*
X40246525Y-40958367D01*
X40084010Y-41201588D01*
X39972068Y-41471841D01*
X39915000Y-41758739D01*
X39915000Y-42051259D01*
X39972068Y-42338157D01*
X40084010Y-42608410D01*
X40246525Y-42851631D01*
X40453368Y-43058474D01*
X40627760Y-43174999D01*
X40453368Y-43291524D01*
X40246525Y-43498367D01*
X40084010Y-43741588D01*
X39972068Y-44011841D01*
X39915000Y-44298739D01*
X39915000Y-44591259D01*
X39972068Y-44878157D01*
X40084010Y-45148410D01*
X40246525Y-45391631D01*
X40453368Y-45598474D01*
X40627760Y-45714999D01*
X40453368Y-45831524D01*
X40246525Y-46038367D01*
X40084010Y-46281588D01*
X39972068Y-46551841D01*
X39915000Y-46838739D01*
X39915000Y-47131259D01*
X39972068Y-47418157D01*
X40084010Y-47688410D01*
X40246525Y-47931631D01*
X40453368Y-48138474D01*
X40627760Y-48254999D01*
X40453368Y-48371524D01*
X40246525Y-48578367D01*
X40084010Y-48821588D01*
X39972068Y-49091841D01*
X39915000Y-49378739D01*
X39915000Y-49671259D01*
X39972068Y-49958157D01*
X40084010Y-50228410D01*
X40246525Y-50471631D01*
X40453368Y-50678474D01*
X40627760Y-50794999D01*
X40453368Y-50911524D01*
X40246525Y-51118367D01*
X40084010Y-51361588D01*
X39972068Y-51631841D01*
X39915000Y-51918739D01*
X39915000Y-52211259D01*
X39972068Y-52498157D01*
X40084010Y-52768410D01*
X40246525Y-53011631D01*
X40453368Y-53218474D01*
X40627760Y-53334999D01*
X40453368Y-53451524D01*
X40246525Y-53658367D01*
X40084010Y-53901588D01*
X39972068Y-54171841D01*
X39915000Y-54458739D01*
X39915000Y-54751259D01*
X39972068Y-55038157D01*
X40084010Y-55308410D01*
X40246525Y-55551631D01*
X40453368Y-55758474D01*
X40696589Y-55920989D01*
X40966842Y-56032931D01*
X41253740Y-56089999D01*
X41546260Y-56089999D01*
X41833158Y-56032931D01*
X42103411Y-55920989D01*
X42346632Y-55758474D01*
X42553475Y-55551631D01*
X42592471Y-55493268D01*
X70237814Y-55493268D01*
X70237814Y-55716844D01*
X70281431Y-55936123D01*
X70366990Y-56142680D01*
X70491202Y-56328576D01*
X70649294Y-56486668D01*
X70835190Y-56610880D01*
X71041747Y-56696439D01*
X71261026Y-56740056D01*
X71484602Y-56740056D01*
X71703881Y-56696439D01*
X71910438Y-56610880D01*
X72096334Y-56486668D01*
X72217946Y-56365056D01*
X75864255Y-56365056D01*
X76589000Y-57089802D01*
X76589000Y-57261788D01*
X76632617Y-57481067D01*
X76706734Y-57660000D01*
X75317325Y-57660000D01*
X75280000Y-57656324D01*
X75242675Y-57660000D01*
X75242667Y-57660000D01*
X75131014Y-57670997D01*
X74987753Y-57714454D01*
X74855724Y-57785026D01*
X74739999Y-57879999D01*
X74716201Y-57908997D01*
X72653801Y-59971398D01*
X72621637Y-59965000D01*
X72378363Y-59965000D01*
X72139764Y-60012460D01*
X71915008Y-60105557D01*
X71712733Y-60240713D01*
X71540713Y-60412733D01*
X71405557Y-60615008D01*
X71312460Y-60839764D01*
X71265000Y-61078363D01*
X71265000Y-61321637D01*
X71312460Y-61560236D01*
X71405557Y-61784992D01*
X71540713Y-61987267D01*
X71712733Y-62159287D01*
X71915008Y-62294443D01*
X72139764Y-62387540D01*
X72378363Y-62435000D01*
X72621637Y-62435000D01*
X72860236Y-62387540D01*
X73084992Y-62294443D01*
X73287267Y-62159287D01*
X73459287Y-61987267D01*
X73594443Y-61784992D01*
X73687540Y-61560236D01*
X73735000Y-61321637D01*
X73735000Y-61078363D01*
X73728602Y-61046199D01*
X75594802Y-59180000D01*
X76706734Y-59180000D01*
X76632617Y-59358933D01*
X76589000Y-59578212D01*
X76589000Y-59801788D01*
X76632617Y-60021067D01*
X76718176Y-60227624D01*
X76783241Y-60325000D01*
X76718176Y-60422376D01*
X76632617Y-60628933D01*
X76589000Y-60848212D01*
X76589000Y-61071788D01*
X76632617Y-61291067D01*
X76718176Y-61497624D01*
X76783241Y-61595000D01*
X76718176Y-61692376D01*
X76632617Y-61898933D01*
X76589000Y-62118212D01*
X76589000Y-62341788D01*
X76632617Y-62561067D01*
X76678888Y-62672774D01*
X76634498Y-62755820D01*
X76598188Y-62875518D01*
X76585928Y-63000000D01*
X76585928Y-64000000D01*
X76598188Y-64124482D01*
X76634498Y-64244180D01*
X76693463Y-64354494D01*
X76772815Y-64451185D01*
X76869506Y-64530537D01*
X76979820Y-64589502D01*
X77099518Y-64625812D01*
X77224000Y-64638072D01*
X78224000Y-64638072D01*
X78348482Y-64625812D01*
X78468180Y-64589502D01*
X78578494Y-64530537D01*
X78675185Y-64451185D01*
X78754537Y-64354494D01*
X78813502Y-64244180D01*
X78849812Y-64124482D01*
X78862072Y-64000000D01*
X78862072Y-63000000D01*
X78849812Y-62875518D01*
X78813502Y-62755820D01*
X78769112Y-62672774D01*
X78815383Y-62561067D01*
X78859000Y-62341788D01*
X78859000Y-62118212D01*
X78815383Y-61898933D01*
X78729824Y-61692376D01*
X78664759Y-61595000D01*
X78729824Y-61497624D01*
X78815383Y-61291067D01*
X78859000Y-61071788D01*
X78859000Y-60848212D01*
X78815383Y-60628933D01*
X78729824Y-60422376D01*
X78664759Y-60325000D01*
X78729824Y-60227624D01*
X78815383Y-60021067D01*
X78859000Y-59801788D01*
X78859000Y-59578212D01*
X78815383Y-59358933D01*
X78729824Y-59152376D01*
X78664759Y-59055000D01*
X78729824Y-58957624D01*
X78815383Y-58751067D01*
X78859000Y-58531788D01*
X78859000Y-58308212D01*
X78815383Y-58088933D01*
X78729824Y-57882376D01*
X78664759Y-57785000D01*
X78729824Y-57687624D01*
X78802068Y-57513212D01*
X79815000Y-57513212D01*
X79815000Y-57736788D01*
X79858617Y-57956067D01*
X79944176Y-58162624D01*
X80068388Y-58348520D01*
X80226480Y-58506612D01*
X80412376Y-58630824D01*
X80618933Y-58716383D01*
X80838212Y-58760000D01*
X81061788Y-58760000D01*
X81281067Y-58716383D01*
X81487624Y-58630824D01*
X81673520Y-58506612D01*
X81831612Y-58348520D01*
X81955824Y-58162624D01*
X82041383Y-57956067D01*
X82085000Y-57736788D01*
X82085000Y-57513212D01*
X82041383Y-57293933D01*
X82010000Y-57218168D01*
X82010000Y-55314801D01*
X82596199Y-54728602D01*
X82628363Y-54735000D01*
X82871637Y-54735000D01*
X83110236Y-54687540D01*
X83334992Y-54594443D01*
X83537267Y-54459287D01*
X83709287Y-54287267D01*
X83844443Y-54084992D01*
X83937540Y-53860236D01*
X83985000Y-53621637D01*
X83985000Y-53378363D01*
X83937540Y-53139764D01*
X83844443Y-52915008D01*
X83709287Y-52712733D01*
X83537267Y-52540713D01*
X83334992Y-52405557D01*
X83110236Y-52312460D01*
X82871637Y-52265000D01*
X82628363Y-52265000D01*
X82389764Y-52312460D01*
X82165008Y-52405557D01*
X81962733Y-52540713D01*
X81790713Y-52712733D01*
X81655557Y-52915008D01*
X81562460Y-53139764D01*
X81515000Y-53378363D01*
X81515000Y-53621637D01*
X81521398Y-53653801D01*
X80739003Y-54436196D01*
X80709999Y-54459999D01*
X80658303Y-54522991D01*
X80615026Y-54575724D01*
X80587673Y-54626898D01*
X80544454Y-54707754D01*
X80500997Y-54851015D01*
X80490000Y-54962668D01*
X80490000Y-54962678D01*
X80486324Y-55000000D01*
X80490000Y-55037323D01*
X80490001Y-56587023D01*
X80412376Y-56619176D01*
X80226480Y-56743388D01*
X80068388Y-56901480D01*
X79944176Y-57087376D01*
X79858617Y-57293933D01*
X79815000Y-57513212D01*
X78802068Y-57513212D01*
X78815383Y-57481067D01*
X78859000Y-57261788D01*
X78859000Y-57038212D01*
X78815383Y-56818933D01*
X78729824Y-56612376D01*
X78664759Y-56515000D01*
X78729824Y-56417624D01*
X78815383Y-56211067D01*
X78859000Y-55991788D01*
X78859000Y-55768212D01*
X78815383Y-55548933D01*
X78729824Y-55342376D01*
X78664759Y-55245000D01*
X78729824Y-55147624D01*
X78815383Y-54941067D01*
X78859000Y-54721788D01*
X78859000Y-54498212D01*
X78815383Y-54278933D01*
X78729824Y-54072376D01*
X78661647Y-53970342D01*
X78711123Y-53900206D01*
X78801446Y-53696864D01*
X78818119Y-53641874D01*
X78691954Y-53467000D01*
X77851000Y-53467000D01*
X77851000Y-53478026D01*
X77835788Y-53475000D01*
X77612212Y-53475000D01*
X77597000Y-53478026D01*
X77597000Y-53467000D01*
X76756046Y-53467000D01*
X76629881Y-53641874D01*
X76646554Y-53696864D01*
X76736877Y-53900206D01*
X76786353Y-53970342D01*
X76718176Y-54072376D01*
X76632617Y-54278933D01*
X76589000Y-54498212D01*
X76589000Y-54721788D01*
X76632617Y-54941067D01*
X76665907Y-55021436D01*
X76603332Y-54970082D01*
X76471303Y-54899510D01*
X76328042Y-54856053D01*
X76216389Y-54845056D01*
X76216378Y-54845056D01*
X76179056Y-54841380D01*
X76141734Y-54845056D01*
X72217946Y-54845056D01*
X72096334Y-54723444D01*
X71910438Y-54599232D01*
X71703881Y-54513673D01*
X71484602Y-54470056D01*
X71261026Y-54470056D01*
X71041747Y-54513673D01*
X70835190Y-54599232D01*
X70649294Y-54723444D01*
X70491202Y-54881536D01*
X70366990Y-55067432D01*
X70281431Y-55273989D01*
X70237814Y-55493268D01*
X42592471Y-55493268D01*
X42715990Y-55308410D01*
X42827932Y-55038157D01*
X42885000Y-54751259D01*
X42885000Y-54458739D01*
X42827932Y-54171841D01*
X42715990Y-53901588D01*
X42553475Y-53658367D01*
X42346632Y-53451524D01*
X42172240Y-53334999D01*
X42346632Y-53218474D01*
X42553475Y-53011631D01*
X42715990Y-52768410D01*
X42827932Y-52498157D01*
X42853051Y-52371874D01*
X76629881Y-52371874D01*
X76646554Y-52426864D01*
X76736877Y-52630206D01*
X76789639Y-52705000D01*
X76736877Y-52779794D01*
X76646554Y-52983136D01*
X76629881Y-53038126D01*
X76756046Y-53213000D01*
X77597000Y-53213000D01*
X77597000Y-52197000D01*
X77851000Y-52197000D01*
X77851000Y-53213000D01*
X78691954Y-53213000D01*
X78818119Y-53038126D01*
X78801446Y-52983136D01*
X78711123Y-52779794D01*
X78658361Y-52705000D01*
X78711123Y-52630206D01*
X78801446Y-52426864D01*
X78818119Y-52371874D01*
X78691954Y-52197000D01*
X77851000Y-52197000D01*
X77597000Y-52197000D01*
X76756046Y-52197000D01*
X76629881Y-52371874D01*
X42853051Y-52371874D01*
X42885000Y-52211259D01*
X42885000Y-51918739D01*
X42827932Y-51631841D01*
X42715990Y-51361588D01*
X42553475Y-51118367D01*
X42346632Y-50911524D01*
X42172240Y-50794999D01*
X42346632Y-50678474D01*
X42553475Y-50471631D01*
X42715990Y-50228410D01*
X42827932Y-49958157D01*
X42885000Y-49671259D01*
X42885000Y-49378739D01*
X42827932Y-49091841D01*
X42715990Y-48821588D01*
X42553475Y-48578367D01*
X42346632Y-48371524D01*
X42172240Y-48254999D01*
X42346632Y-48138474D01*
X42553475Y-47931631D01*
X42715990Y-47688410D01*
X42827932Y-47418157D01*
X42885000Y-47131259D01*
X42885000Y-46838739D01*
X42827932Y-46551841D01*
X42715990Y-46281588D01*
X42553475Y-46038367D01*
X42346632Y-45831524D01*
X42172240Y-45714999D01*
X42346632Y-45598474D01*
X42553475Y-45391631D01*
X42715990Y-45148410D01*
X42827932Y-44878157D01*
X42885000Y-44591259D01*
X42885000Y-44298739D01*
X42827932Y-44011841D01*
X42715990Y-43741588D01*
X42553475Y-43498367D01*
X42346632Y-43291524D01*
X42172240Y-43174999D01*
X42346632Y-43058474D01*
X42553475Y-42851631D01*
X42715990Y-42608410D01*
X42827932Y-42338157D01*
X42885000Y-42051259D01*
X42885000Y-41758739D01*
X42827932Y-41471841D01*
X42715990Y-41201588D01*
X42553475Y-40958367D01*
X42346632Y-40751524D01*
X42172240Y-40634999D01*
X42346632Y-40518474D01*
X42553475Y-40311631D01*
X42715990Y-40068410D01*
X42827932Y-39798157D01*
X42885000Y-39511259D01*
X42885000Y-39218739D01*
X42827932Y-38931841D01*
X42715990Y-38661588D01*
X42553475Y-38418367D01*
X42346632Y-38211524D01*
X42172240Y-38094999D01*
X42346632Y-37978474D01*
X42553475Y-37771631D01*
X42715990Y-37528410D01*
X42827932Y-37258157D01*
X42885000Y-36971259D01*
X42885000Y-36678739D01*
X42827932Y-36391841D01*
X42715990Y-36121588D01*
X42553475Y-35878367D01*
X42346632Y-35671524D01*
X42172240Y-35554999D01*
X42346632Y-35438474D01*
X42553475Y-35231631D01*
X42715990Y-34988410D01*
X42827932Y-34718157D01*
X42885000Y-34431259D01*
X42885000Y-34138739D01*
X42827932Y-33851841D01*
X42715990Y-33581588D01*
X42553475Y-33338367D01*
X42421620Y-33206512D01*
X42494180Y-33184501D01*
X42604494Y-33125536D01*
X42701185Y-33046184D01*
X42780537Y-32949493D01*
X42839502Y-32839179D01*
X42875812Y-32719481D01*
X42888072Y-32594999D01*
X42888072Y-30894999D01*
X42875812Y-30770517D01*
X42839502Y-30650819D01*
X42829443Y-30632000D01*
X54913609Y-30632000D01*
X54910498Y-30637820D01*
X54874188Y-30757518D01*
X54861928Y-30882000D01*
X54861928Y-32582000D01*
X54874188Y-32706482D01*
X54910498Y-32826180D01*
X54969463Y-32936494D01*
X55048815Y-33033185D01*
X55145506Y-33112537D01*
X55255820Y-33171502D01*
X55375518Y-33207812D01*
X55500000Y-33220072D01*
X55515000Y-33220072D01*
X55515001Y-36799970D01*
X55510960Y-36840998D01*
X55527082Y-37004686D01*
X55574828Y-37162084D01*
X55651753Y-37305999D01*
X55652365Y-37307144D01*
X55756710Y-37434289D01*
X55788574Y-37460439D01*
X56605000Y-38276867D01*
X56605001Y-40532974D01*
X56600960Y-40574002D01*
X56617082Y-40737690D01*
X56664828Y-40895088D01*
X56742364Y-41040147D01*
X56742365Y-41040148D01*
X56846710Y-41167293D01*
X56878574Y-41193443D01*
X59946561Y-44261432D01*
X59972707Y-44293291D01*
X60004566Y-44319437D01*
X60004568Y-44319439D01*
X60084455Y-44385000D01*
X60099852Y-44397636D01*
X60244911Y-44475172D01*
X60402309Y-44522918D01*
X60524979Y-44535000D01*
X60524980Y-44535000D01*
X60565998Y-44539040D01*
X60607016Y-44535000D01*
X61188446Y-44535000D01*
X61312733Y-44659287D01*
X61515008Y-44794443D01*
X61739764Y-44887540D01*
X61978363Y-44935000D01*
X62221637Y-44935000D01*
X62460236Y-44887540D01*
X62684992Y-44794443D01*
X62887267Y-44659287D01*
X63059287Y-44487267D01*
X63194443Y-44284992D01*
X63287540Y-44060236D01*
X63335000Y-43821637D01*
X63335000Y-43578363D01*
X63287540Y-43339764D01*
X63194443Y-43115008D01*
X63059287Y-42912733D01*
X62887267Y-42740713D01*
X62684992Y-42605557D01*
X62460236Y-42512460D01*
X62221637Y-42465000D01*
X61978363Y-42465000D01*
X61739764Y-42512460D01*
X61515008Y-42605557D01*
X61312733Y-42740713D01*
X61188446Y-42865000D01*
X60911867Y-42865000D01*
X58275000Y-40228135D01*
X58275000Y-37972016D01*
X58279040Y-37930998D01*
X58262918Y-37767310D01*
X58241595Y-37697015D01*
X58215172Y-37609911D01*
X58137636Y-37464852D01*
X58137564Y-37464764D01*
X58059439Y-37369568D01*
X58059437Y-37369566D01*
X58033291Y-37337707D01*
X58001433Y-37311562D01*
X57185000Y-36495131D01*
X57185000Y-33220072D01*
X57200000Y-33220072D01*
X57324482Y-33207812D01*
X57444180Y-33171502D01*
X57554494Y-33112537D01*
X57651185Y-33033185D01*
X57730537Y-32936494D01*
X57789502Y-32826180D01*
X57811513Y-32753620D01*
X57943368Y-32885475D01*
X58186589Y-33047990D01*
X58456842Y-33159932D01*
X58743740Y-33217000D01*
X59036260Y-33217000D01*
X59167940Y-33190807D01*
X59655001Y-33677869D01*
X59655002Y-36303000D01*
X59588061Y-36303000D01*
X59388102Y-36342774D01*
X59199744Y-36420795D01*
X59030226Y-36534063D01*
X58886063Y-36678226D01*
X58772795Y-36847744D01*
X58694774Y-37036102D01*
X58655000Y-37236061D01*
X58655000Y-37439939D01*
X58694774Y-37639898D01*
X58772795Y-37828256D01*
X58886063Y-37997774D01*
X59030226Y-38141937D01*
X59199744Y-38255205D01*
X59388102Y-38333226D01*
X59588061Y-38373000D01*
X59655002Y-38373000D01*
X59655002Y-39026975D01*
X59650961Y-39068003D01*
X59667083Y-39231691D01*
X59714829Y-39389089D01*
X59780131Y-39511259D01*
X59792366Y-39534149D01*
X59896711Y-39661294D01*
X59928575Y-39687444D01*
X67985568Y-47744438D01*
X68080852Y-47822636D01*
X68225911Y-47900171D01*
X68357210Y-47940000D01*
X63616007Y-47940000D01*
X63574999Y-47935961D01*
X63533991Y-47940000D01*
X63533981Y-47940000D01*
X63411311Y-47952082D01*
X63253913Y-47999828D01*
X63108854Y-48077364D01*
X62981709Y-48181709D01*
X62955554Y-48213579D01*
X62613574Y-48555559D01*
X62581710Y-48581709D01*
X62519302Y-48657754D01*
X62477364Y-48708855D01*
X62399828Y-48853914D01*
X62352082Y-49011312D01*
X62343447Y-49098986D01*
X62340054Y-49133438D01*
X62336781Y-49166665D01*
X62215713Y-49287733D01*
X62080557Y-49490008D01*
X61987460Y-49714764D01*
X61940000Y-49953363D01*
X61940000Y-50196637D01*
X61987460Y-50435236D01*
X62080557Y-50659992D01*
X62215713Y-50862267D01*
X62387733Y-51034287D01*
X62590008Y-51169443D01*
X62814764Y-51262540D01*
X63053363Y-51310000D01*
X63296637Y-51310000D01*
X63535236Y-51262540D01*
X63759992Y-51169443D01*
X63962267Y-51034287D01*
X64134287Y-50862267D01*
X64269443Y-50659992D01*
X64362540Y-50435236D01*
X64410000Y-50196637D01*
X64410000Y-49953363D01*
X64362540Y-49714764D01*
X64319145Y-49610000D01*
X67867312Y-49610000D01*
X67830557Y-49665008D01*
X67737460Y-49889764D01*
X67690000Y-50128363D01*
X67690000Y-50371637D01*
X67737460Y-50610236D01*
X67830557Y-50834992D01*
X67965713Y-51037267D01*
X68137733Y-51209287D01*
X68340008Y-51344443D01*
X68564764Y-51437540D01*
X68803363Y-51485000D01*
X69046637Y-51485000D01*
X69157292Y-51462990D01*
X69276014Y-51499003D01*
X69387667Y-51510000D01*
X69387675Y-51510000D01*
X69425000Y-51513676D01*
X69462325Y-51510000D01*
X73222494Y-51510000D01*
X73240713Y-51537267D01*
X73412733Y-51709287D01*
X73615008Y-51844443D01*
X73839764Y-51937540D01*
X74078363Y-51985000D01*
X74321637Y-51985000D01*
X74560236Y-51937540D01*
X74784992Y-51844443D01*
X74899208Y-51768126D01*
X76629881Y-51768126D01*
X76756046Y-51943000D01*
X77597000Y-51943000D01*
X77597000Y-51100871D01*
X77851000Y-51100871D01*
X77851000Y-51943000D01*
X78691954Y-51943000D01*
X78818119Y-51768126D01*
X78801446Y-51713136D01*
X78711123Y-51509794D01*
X78582865Y-51327980D01*
X78421601Y-51174682D01*
X78233529Y-51055790D01*
X78025876Y-50975874D01*
X77851000Y-51100871D01*
X77597000Y-51100871D01*
X77422124Y-50975874D01*
X77214471Y-51055790D01*
X77026399Y-51174682D01*
X76865135Y-51327980D01*
X76736877Y-51509794D01*
X76646554Y-51713136D01*
X76629881Y-51768126D01*
X74899208Y-51768126D01*
X74987267Y-51709287D01*
X75159287Y-51537267D01*
X75294443Y-51334992D01*
X75387540Y-51110236D01*
X75434729Y-50873000D01*
X80629135Y-50873000D01*
X80654774Y-51001898D01*
X80732795Y-51190256D01*
X80846063Y-51359774D01*
X80990226Y-51503937D01*
X81159744Y-51617205D01*
X81348102Y-51695226D01*
X81508983Y-51727227D01*
X81533865Y-51747647D01*
X81678924Y-51825183D01*
X81836322Y-51872929D01*
X81958992Y-51885011D01*
X81959002Y-51885011D01*
X82000010Y-51889050D01*
X82041018Y-51885011D01*
X89790188Y-51885011D01*
X89238987Y-52436212D01*
X89209989Y-52460010D01*
X89186191Y-52489008D01*
X89186190Y-52489009D01*
X89115015Y-52575735D01*
X89044443Y-52707765D01*
X89022594Y-52779794D01*
X89004639Y-52838988D01*
X89000987Y-52851026D01*
X88986313Y-53000011D01*
X88989990Y-53037343D01*
X88989989Y-57362666D01*
X88986313Y-57399989D01*
X88989989Y-57437311D01*
X88989989Y-57437321D01*
X89000986Y-57548974D01*
X89024048Y-57625000D01*
X89044443Y-57692235D01*
X89115015Y-57824265D01*
X89148447Y-57865001D01*
X89209988Y-57939990D01*
X89238992Y-57963793D01*
X92365000Y-61089802D01*
X92365000Y-61140000D01*
X91539802Y-61140000D01*
X91260000Y-60860199D01*
X91260000Y-60798061D01*
X91220226Y-60598102D01*
X91142205Y-60409744D01*
X91028937Y-60240226D01*
X90884774Y-60096063D01*
X90715256Y-59982795D01*
X90526898Y-59904774D01*
X90326939Y-59865000D01*
X90123061Y-59865000D01*
X89923102Y-59904774D01*
X89734744Y-59982795D01*
X89565226Y-60096063D01*
X89421063Y-60240226D01*
X89307795Y-60409744D01*
X89229774Y-60598102D01*
X89190000Y-60798061D01*
X89190000Y-61001939D01*
X89229774Y-61201898D01*
X89307795Y-61390256D01*
X89421063Y-61559774D01*
X89565226Y-61703937D01*
X89734744Y-61817205D01*
X89923102Y-61895226D01*
X90123061Y-61935000D01*
X90185199Y-61935000D01*
X90661200Y-62411002D01*
X90684999Y-62440001D01*
X90713997Y-62463799D01*
X90800724Y-62534974D01*
X90932753Y-62605546D01*
X91076014Y-62649003D01*
X91225000Y-62663677D01*
X91262333Y-62660000D01*
X100658201Y-62660000D01*
X102915001Y-64916801D01*
X102915000Y-73422494D01*
X102887733Y-73440713D01*
X102715713Y-73612733D01*
X102580557Y-73815008D01*
X102487460Y-74039764D01*
X102440000Y-74278363D01*
X102440000Y-74521637D01*
X102487460Y-74760236D01*
X102580557Y-74984992D01*
X102715713Y-75187267D01*
X102887733Y-75359287D01*
X103090008Y-75494443D01*
X103314764Y-75587540D01*
X103553363Y-75635000D01*
X103796637Y-75635000D01*
X104035236Y-75587540D01*
X104259992Y-75494443D01*
X104462267Y-75359287D01*
X104634287Y-75187267D01*
X104769443Y-74984992D01*
X104862540Y-74760236D01*
X104910000Y-74521637D01*
X104910000Y-74278363D01*
X104862540Y-74039764D01*
X104769443Y-73815008D01*
X104634287Y-73612733D01*
X104462267Y-73440713D01*
X104435000Y-73422494D01*
X104435000Y-64941890D01*
X110483524Y-64941890D01*
X110528175Y-65089099D01*
X110653359Y-65351920D01*
X110827412Y-65585269D01*
X111043645Y-65780178D01*
X111293748Y-65929157D01*
X111568109Y-66026481D01*
X111798000Y-65905814D01*
X111798000Y-64712000D01*
X110604845Y-64712000D01*
X110483524Y-64941890D01*
X104435000Y-64941890D01*
X104435000Y-64639320D01*
X104438676Y-64601997D01*
X104435000Y-64564674D01*
X104435000Y-64564665D01*
X104424003Y-64453012D01*
X104380546Y-64309751D01*
X104309974Y-64177722D01*
X104215001Y-64061997D01*
X104186003Y-64038199D01*
X101536806Y-61389003D01*
X101513003Y-61359999D01*
X101397278Y-61265026D01*
X101265249Y-61194454D01*
X101121988Y-61150997D01*
X101010335Y-61140000D01*
X101010324Y-61140000D01*
X100973002Y-61136324D01*
X100935680Y-61140000D01*
X95710000Y-61140000D01*
X95710000Y-60998061D01*
X95670226Y-60798102D01*
X95592205Y-60609744D01*
X95478937Y-60440226D01*
X95334774Y-60296063D01*
X95165256Y-60182795D01*
X94976898Y-60104774D01*
X94776939Y-60065000D01*
X94714802Y-60065000D01*
X90959999Y-56310198D01*
X90959999Y-55360000D01*
X91026939Y-55360000D01*
X91226898Y-55320226D01*
X91415256Y-55242205D01*
X91584774Y-55128937D01*
X91728937Y-54984774D01*
X91842205Y-54815256D01*
X91844610Y-54809450D01*
X91973061Y-54835000D01*
X92176939Y-54835000D01*
X92376898Y-54795226D01*
X92565256Y-54717205D01*
X92734774Y-54603937D01*
X92778711Y-54560000D01*
X101060199Y-54560000D01*
X109056201Y-62556003D01*
X109079999Y-62585001D01*
X109195724Y-62679974D01*
X109327753Y-62750546D01*
X109471014Y-62794003D01*
X109582667Y-62805000D01*
X109582677Y-62805000D01*
X109620000Y-62808676D01*
X109657323Y-62805000D01*
X110646822Y-62805000D01*
X110771525Y-62991632D01*
X110978368Y-63198475D01*
X111160534Y-63320195D01*
X111043645Y-63389822D01*
X110827412Y-63584731D01*
X110653359Y-63818080D01*
X110528175Y-64080901D01*
X110483524Y-64228110D01*
X110604845Y-64458000D01*
X111798000Y-64458000D01*
X111798000Y-64438000D01*
X112052000Y-64438000D01*
X112052000Y-64458000D01*
X112072000Y-64458000D01*
X112072000Y-64712000D01*
X112052000Y-64712000D01*
X112052000Y-65905814D01*
X112281891Y-66026481D01*
X112556252Y-65929157D01*
X112806355Y-65780178D01*
X113022588Y-65585269D01*
X113136144Y-65433027D01*
X113132142Y-84176000D01*
X42309107Y-84176000D01*
X42503475Y-83981632D01*
X42665990Y-83738411D01*
X42777932Y-83468158D01*
X42835000Y-83181260D01*
X42835000Y-82888740D01*
X42777932Y-82601842D01*
X42665990Y-82331589D01*
X42503475Y-82088368D01*
X42296632Y-81881525D01*
X42122240Y-81765000D01*
X42296632Y-81648475D01*
X42503475Y-81441632D01*
X42665990Y-81198411D01*
X42777932Y-80928158D01*
X42835000Y-80641260D01*
X42835000Y-80348740D01*
X42777932Y-80061842D01*
X42665990Y-79791589D01*
X42503475Y-79548368D01*
X42296632Y-79341525D01*
X42122240Y-79225000D01*
X42296632Y-79108475D01*
X42503475Y-78901632D01*
X42588087Y-78775000D01*
X56886928Y-78775000D01*
X56899188Y-78899482D01*
X56935498Y-79019180D01*
X56994463Y-79129494D01*
X57073815Y-79226185D01*
X57170506Y-79305537D01*
X57280820Y-79364502D01*
X57400518Y-79400812D01*
X57525000Y-79413072D01*
X58089250Y-79410000D01*
X58248000Y-79251250D01*
X58248000Y-78052000D01*
X58502000Y-78052000D01*
X58502000Y-79251250D01*
X58660750Y-79410000D01*
X59225000Y-79413072D01*
X59349482Y-79400812D01*
X59469180Y-79364502D01*
X59579494Y-79305537D01*
X59676185Y-79226185D01*
X59755537Y-79129494D01*
X59814502Y-79019180D01*
X59838966Y-78938534D01*
X59914731Y-79022588D01*
X60148080Y-79196641D01*
X60410901Y-79321825D01*
X60558110Y-79366476D01*
X60788000Y-79245155D01*
X60788000Y-78052000D01*
X58502000Y-78052000D01*
X58248000Y-78052000D01*
X57048750Y-78052000D01*
X56890000Y-78210750D01*
X56886928Y-78775000D01*
X42588087Y-78775000D01*
X42665990Y-78658411D01*
X42777932Y-78388158D01*
X42835000Y-78101260D01*
X42835000Y-77808740D01*
X42777932Y-77521842D01*
X42665990Y-77251589D01*
X42547998Y-77075000D01*
X56886928Y-77075000D01*
X56890000Y-77639250D01*
X57048750Y-77798000D01*
X58248000Y-77798000D01*
X58248000Y-76598750D01*
X58502000Y-76598750D01*
X58502000Y-77798000D01*
X60788000Y-77798000D01*
X60788000Y-76604845D01*
X61042000Y-76604845D01*
X61042000Y-77798000D01*
X61062000Y-77798000D01*
X61062000Y-78052000D01*
X61042000Y-78052000D01*
X61042000Y-79245155D01*
X61271890Y-79366476D01*
X61419099Y-79321825D01*
X61681920Y-79196641D01*
X61915269Y-79022588D01*
X62110178Y-78806355D01*
X62179805Y-78689466D01*
X62301525Y-78871632D01*
X62508368Y-79078475D01*
X62751589Y-79240990D01*
X63021842Y-79352932D01*
X63308740Y-79410000D01*
X63601260Y-79410000D01*
X63888158Y-79352932D01*
X64158411Y-79240990D01*
X64401632Y-79078475D01*
X64608475Y-78871632D01*
X64725000Y-78697240D01*
X64841525Y-78871632D01*
X65048368Y-79078475D01*
X65291589Y-79240990D01*
X65561842Y-79352932D01*
X65848740Y-79410000D01*
X66141260Y-79410000D01*
X66428158Y-79352932D01*
X66698411Y-79240990D01*
X66941632Y-79078475D01*
X67148475Y-78871632D01*
X67265000Y-78697240D01*
X67381525Y-78871632D01*
X67588368Y-79078475D01*
X67831589Y-79240990D01*
X68101842Y-79352932D01*
X68388740Y-79410000D01*
X68681260Y-79410000D01*
X68968158Y-79352932D01*
X69238411Y-79240990D01*
X69481632Y-79078475D01*
X69688475Y-78871632D01*
X69850990Y-78628411D01*
X69962932Y-78358158D01*
X70020000Y-78071260D01*
X70020000Y-77778740D01*
X69962932Y-77491842D01*
X69850990Y-77221589D01*
X69688475Y-76978368D01*
X69481632Y-76771525D01*
X69238411Y-76609010D01*
X68968158Y-76497068D01*
X68681260Y-76440000D01*
X68388740Y-76440000D01*
X68101842Y-76497068D01*
X67831589Y-76609010D01*
X67588368Y-76771525D01*
X67381525Y-76978368D01*
X67265000Y-77152760D01*
X67148475Y-76978368D01*
X66941632Y-76771525D01*
X66698411Y-76609010D01*
X66428158Y-76497068D01*
X66141260Y-76440000D01*
X65848740Y-76440000D01*
X65561842Y-76497068D01*
X65291589Y-76609010D01*
X65048368Y-76771525D01*
X64841525Y-76978368D01*
X64725000Y-77152760D01*
X64608475Y-76978368D01*
X64401632Y-76771525D01*
X64158411Y-76609010D01*
X63888158Y-76497068D01*
X63601260Y-76440000D01*
X63308740Y-76440000D01*
X63021842Y-76497068D01*
X62751589Y-76609010D01*
X62508368Y-76771525D01*
X62301525Y-76978368D01*
X62179805Y-77160534D01*
X62110178Y-77043645D01*
X61915269Y-76827412D01*
X61681920Y-76653359D01*
X61419099Y-76528175D01*
X61271890Y-76483524D01*
X61042000Y-76604845D01*
X60788000Y-76604845D01*
X60558110Y-76483524D01*
X60410901Y-76528175D01*
X60148080Y-76653359D01*
X59914731Y-76827412D01*
X59838966Y-76911466D01*
X59814502Y-76830820D01*
X59755537Y-76720506D01*
X59676185Y-76623815D01*
X59579494Y-76544463D01*
X59469180Y-76485498D01*
X59349482Y-76449188D01*
X59225000Y-76436928D01*
X58660750Y-76440000D01*
X58502000Y-76598750D01*
X58248000Y-76598750D01*
X58089250Y-76440000D01*
X57525000Y-76436928D01*
X57400518Y-76449188D01*
X57280820Y-76485498D01*
X57170506Y-76544463D01*
X57073815Y-76623815D01*
X56994463Y-76720506D01*
X56935498Y-76830820D01*
X56899188Y-76950518D01*
X56886928Y-77075000D01*
X42547998Y-77075000D01*
X42503475Y-77008368D01*
X42296632Y-76801525D01*
X42122240Y-76685000D01*
X42296632Y-76568475D01*
X42503475Y-76361632D01*
X42665990Y-76118411D01*
X42777932Y-75848158D01*
X42835000Y-75561260D01*
X42835000Y-75268740D01*
X42777932Y-74981842D01*
X42665990Y-74711589D01*
X42503475Y-74468368D01*
X42296632Y-74261525D01*
X42122240Y-74145000D01*
X42296632Y-74028475D01*
X42503475Y-73821632D01*
X42665990Y-73578411D01*
X42777932Y-73308158D01*
X42835000Y-73021260D01*
X42835000Y-72728740D01*
X42777932Y-72441842D01*
X42665990Y-72171589D01*
X42503475Y-71928368D01*
X42296632Y-71721525D01*
X42232036Y-71678363D01*
X59776900Y-71678363D01*
X59776900Y-71921637D01*
X59824360Y-72160236D01*
X59917457Y-72384992D01*
X60052613Y-72587267D01*
X60224633Y-72759287D01*
X60426908Y-72894443D01*
X60651664Y-72987540D01*
X60890263Y-73035000D01*
X61133537Y-73035000D01*
X61372136Y-72987540D01*
X61596892Y-72894443D01*
X61799167Y-72759287D01*
X61971187Y-72587267D01*
X62106343Y-72384992D01*
X62199440Y-72160236D01*
X62246900Y-71921637D01*
X62246900Y-71678363D01*
X62199440Y-71439764D01*
X62106343Y-71215008D01*
X61971187Y-71012733D01*
X61799167Y-70840713D01*
X61771900Y-70822494D01*
X61771900Y-66677901D01*
X61796438Y-66653363D01*
X73665000Y-66653363D01*
X73665000Y-66896637D01*
X73712460Y-67135236D01*
X73805557Y-67359992D01*
X73940713Y-67562267D01*
X74112733Y-67734287D01*
X74315008Y-67869443D01*
X74539764Y-67962540D01*
X74778363Y-68010000D01*
X74954133Y-68010000D01*
X75605559Y-68661427D01*
X75631710Y-68693292D01*
X75758855Y-68797637D01*
X75903914Y-68875173D01*
X76061312Y-68922919D01*
X76183982Y-68935001D01*
X76183992Y-68935001D01*
X76225000Y-68939040D01*
X76266008Y-68935001D01*
X79342983Y-68935001D01*
X79384001Y-68939041D01*
X79425019Y-68935001D01*
X79425020Y-68935001D01*
X79547690Y-68922919D01*
X79705088Y-68875173D01*
X79850147Y-68797637D01*
X79977292Y-68693292D01*
X80003447Y-68661422D01*
X82336559Y-66328312D01*
X82498102Y-66395226D01*
X82698061Y-66435000D01*
X82901939Y-66435000D01*
X83101898Y-66395226D01*
X83290256Y-66317205D01*
X83459774Y-66203937D01*
X83503711Y-66160000D01*
X83835680Y-66160000D01*
X83873002Y-66163676D01*
X83910324Y-66160000D01*
X83910335Y-66160000D01*
X84021988Y-66149003D01*
X84165249Y-66105546D01*
X84297278Y-66034974D01*
X84413003Y-65940001D01*
X84436806Y-65910997D01*
X87811003Y-62536801D01*
X87840001Y-62513003D01*
X87880382Y-62463799D01*
X87934974Y-62397279D01*
X88005546Y-62265249D01*
X88027163Y-62193986D01*
X88049003Y-62121988D01*
X88060000Y-62010335D01*
X88060000Y-62010326D01*
X88063676Y-61973003D01*
X88060000Y-61935680D01*
X88060000Y-61503711D01*
X88103937Y-61459774D01*
X88217205Y-61290256D01*
X88295226Y-61101898D01*
X88335000Y-60901939D01*
X88335000Y-60698061D01*
X88295226Y-60498102D01*
X88217205Y-60309744D01*
X88103937Y-60140226D01*
X87959774Y-59996063D01*
X87790256Y-59882795D01*
X87601898Y-59804774D01*
X87401939Y-59765000D01*
X87198061Y-59765000D01*
X86998102Y-59804774D01*
X86809744Y-59882795D01*
X86640226Y-59996063D01*
X86496063Y-60140226D01*
X86382795Y-60309744D01*
X86304774Y-60498102D01*
X86265000Y-60698061D01*
X86265000Y-60901939D01*
X86304774Y-61101898D01*
X86382795Y-61290256D01*
X86496063Y-61459774D01*
X86540001Y-61503712D01*
X86540001Y-61658199D01*
X85930956Y-62267245D01*
X85859774Y-62196063D01*
X85690256Y-62082795D01*
X85501898Y-62004774D01*
X85301939Y-61965000D01*
X85145868Y-61965000D01*
X84135000Y-60954133D01*
X84135000Y-60888212D01*
X84091383Y-60668933D01*
X84005824Y-60462376D01*
X83881612Y-60276480D01*
X83723520Y-60118388D01*
X83537624Y-59994176D01*
X83331067Y-59908617D01*
X83111788Y-59865000D01*
X82888212Y-59865000D01*
X82668933Y-59908617D01*
X82462376Y-59994176D01*
X82276480Y-60118388D01*
X82118388Y-60276480D01*
X81994176Y-60462376D01*
X81908617Y-60668933D01*
X81865000Y-60888212D01*
X81865000Y-61111788D01*
X81908617Y-61331067D01*
X81994176Y-61537624D01*
X82118388Y-61723520D01*
X82276480Y-61881612D01*
X82462376Y-62005824D01*
X82668933Y-62091383D01*
X82888212Y-62135000D01*
X82954133Y-62135000D01*
X83327131Y-62507999D01*
X81438578Y-64396553D01*
X81406708Y-64422708D01*
X81327311Y-64519455D01*
X81302363Y-64549854D01*
X81224827Y-64694913D01*
X81177081Y-64852311D01*
X81160959Y-65015999D01*
X81164999Y-65057017D01*
X81164999Y-65138134D01*
X80860000Y-65443133D01*
X80860000Y-61545132D01*
X80981612Y-61423520D01*
X81105824Y-61237624D01*
X81191383Y-61031067D01*
X81235000Y-60811788D01*
X81235000Y-60588212D01*
X81191383Y-60368933D01*
X81105824Y-60162376D01*
X80981612Y-59976480D01*
X80823520Y-59818388D01*
X80637624Y-59694176D01*
X80431067Y-59608617D01*
X80211788Y-59565000D01*
X79988212Y-59565000D01*
X79768933Y-59608617D01*
X79562376Y-59694176D01*
X79376480Y-59818388D01*
X79218388Y-59976480D01*
X79094176Y-60162376D01*
X79008617Y-60368933D01*
X78965000Y-60588212D01*
X78965000Y-60811788D01*
X79008617Y-61031067D01*
X79094176Y-61237624D01*
X79218388Y-61423520D01*
X79340000Y-61545132D01*
X79340001Y-65395500D01*
X79260236Y-65362460D01*
X79021637Y-65315000D01*
X78778363Y-65315000D01*
X78539764Y-65362460D01*
X78315008Y-65455557D01*
X78112733Y-65590713D01*
X77940713Y-65762733D01*
X77805557Y-65965008D01*
X77712460Y-66189764D01*
X77665000Y-66428363D01*
X77665000Y-66671637D01*
X77712460Y-66910236D01*
X77805557Y-67134992D01*
X77892426Y-67265001D01*
X76570869Y-67265001D01*
X76135000Y-66829133D01*
X76135000Y-66653363D01*
X76087540Y-66414764D01*
X75994443Y-66190008D01*
X75859287Y-65987733D01*
X75687267Y-65815713D01*
X75484992Y-65680557D01*
X75260236Y-65587460D01*
X75021637Y-65540000D01*
X74778363Y-65540000D01*
X74539764Y-65587460D01*
X74315008Y-65680557D01*
X74112733Y-65815713D01*
X73940713Y-65987733D01*
X73805557Y-66190008D01*
X73712460Y-66414764D01*
X73665000Y-66653363D01*
X61796438Y-66653363D01*
X61996199Y-66453602D01*
X62028363Y-66460000D01*
X62271637Y-66460000D01*
X62510236Y-66412540D01*
X62734992Y-66319443D01*
X62937267Y-66184287D01*
X63109287Y-66012267D01*
X63244443Y-65809992D01*
X63337540Y-65585236D01*
X63385000Y-65346637D01*
X63385000Y-65103363D01*
X63337540Y-64864764D01*
X63244443Y-64640008D01*
X63109287Y-64437733D01*
X62937267Y-64265713D01*
X62734992Y-64130557D01*
X62510236Y-64037460D01*
X62271637Y-63990000D01*
X62028363Y-63990000D01*
X61789764Y-64037460D01*
X61565008Y-64130557D01*
X61362733Y-64265713D01*
X61190713Y-64437733D01*
X61055557Y-64640008D01*
X60962460Y-64864764D01*
X60915000Y-65103363D01*
X60915000Y-65346637D01*
X60921398Y-65378801D01*
X60500902Y-65799297D01*
X60471899Y-65823099D01*
X60445687Y-65855039D01*
X60376926Y-65938824D01*
X60323382Y-66038998D01*
X60306354Y-66070854D01*
X60262897Y-66214115D01*
X60251900Y-66325768D01*
X60251900Y-66325778D01*
X60248224Y-66363100D01*
X60251900Y-66400423D01*
X60251901Y-70822493D01*
X60224633Y-70840713D01*
X60052613Y-71012733D01*
X59917457Y-71215008D01*
X59824360Y-71439764D01*
X59776900Y-71678363D01*
X42232036Y-71678363D01*
X42122240Y-71605000D01*
X42296632Y-71488475D01*
X42503475Y-71281632D01*
X42665990Y-71038411D01*
X42777932Y-70768158D01*
X42835000Y-70481260D01*
X42835000Y-70188740D01*
X42777932Y-69901842D01*
X42665990Y-69631589D01*
X42503475Y-69388368D01*
X42296632Y-69181525D01*
X42122240Y-69065000D01*
X42296632Y-68948475D01*
X42503475Y-68741632D01*
X42665990Y-68498411D01*
X42777932Y-68228158D01*
X42835000Y-67941260D01*
X42835000Y-67648740D01*
X42777932Y-67361842D01*
X42665990Y-67091589D01*
X42503475Y-66848368D01*
X42296632Y-66641525D01*
X42122240Y-66525000D01*
X42296632Y-66408475D01*
X42503475Y-66201632D01*
X42665990Y-65958411D01*
X42777932Y-65688158D01*
X42835000Y-65401260D01*
X42835000Y-65108740D01*
X42777932Y-64821842D01*
X42665990Y-64551589D01*
X42503475Y-64308368D01*
X42296632Y-64101525D01*
X42122240Y-63985000D01*
X42296632Y-63868475D01*
X42503475Y-63661632D01*
X42665990Y-63418411D01*
X42777932Y-63148158D01*
X42835000Y-62861260D01*
X42835000Y-62568740D01*
X42777932Y-62281842D01*
X42665990Y-62011589D01*
X42503475Y-61768368D01*
X42371620Y-61636513D01*
X42444180Y-61614502D01*
X42554494Y-61555537D01*
X42651185Y-61476185D01*
X42730537Y-61379494D01*
X42789502Y-61269180D01*
X42825812Y-61149482D01*
X42838072Y-61025000D01*
X42838072Y-59325000D01*
X42825812Y-59200518D01*
X42789502Y-59080820D01*
X42730537Y-58970506D01*
X42651185Y-58873815D01*
X42554494Y-58794463D01*
X42444180Y-58735498D01*
X42324482Y-58699188D01*
X42200000Y-58686928D01*
X40500000Y-58686928D01*
X40375518Y-58699188D01*
X40255820Y-58735498D01*
X40145506Y-58794463D01*
X40048815Y-58873815D01*
X39969463Y-58970506D01*
X39910498Y-59080820D01*
X39874188Y-59200518D01*
X39861928Y-59325000D01*
X39861928Y-61025000D01*
X39874188Y-61149482D01*
X39910498Y-61269180D01*
X39969463Y-61379494D01*
X40048815Y-61476185D01*
X40145506Y-61555537D01*
X40255820Y-61614502D01*
X40328380Y-61636513D01*
X40196525Y-61768368D01*
X40034010Y-62011589D01*
X39922068Y-62281842D01*
X39865000Y-62568740D01*
X39865000Y-62861260D01*
X39922068Y-63148158D01*
X40034010Y-63418411D01*
X40196525Y-63661632D01*
X40403368Y-63868475D01*
X40577760Y-63985000D01*
X40403368Y-64101525D01*
X40196525Y-64308368D01*
X40034010Y-64551589D01*
X39922068Y-64821842D01*
X39865000Y-65108740D01*
X39865000Y-65401260D01*
X39922068Y-65688158D01*
X40034010Y-65958411D01*
X40196525Y-66201632D01*
X40403368Y-66408475D01*
X40577760Y-66525000D01*
X40403368Y-66641525D01*
X40196525Y-66848368D01*
X40034010Y-67091589D01*
X39922068Y-67361842D01*
X39865000Y-67648740D01*
X39865000Y-67941260D01*
X39922068Y-68228158D01*
X40034010Y-68498411D01*
X40196525Y-68741632D01*
X40403368Y-68948475D01*
X40577760Y-69065000D01*
X40403368Y-69181525D01*
X40196525Y-69388368D01*
X40034010Y-69631589D01*
X39922068Y-69901842D01*
X39865000Y-70188740D01*
X39865000Y-70481260D01*
X39922068Y-70768158D01*
X40034010Y-71038411D01*
X40196525Y-71281632D01*
X40403368Y-71488475D01*
X40577760Y-71605000D01*
X40403368Y-71721525D01*
X40196525Y-71928368D01*
X40034010Y-72171589D01*
X39922068Y-72441842D01*
X39865000Y-72728740D01*
X39865000Y-73021260D01*
X39922068Y-73308158D01*
X40034010Y-73578411D01*
X40196525Y-73821632D01*
X40403368Y-74028475D01*
X40577760Y-74145000D01*
X40403368Y-74261525D01*
X40196525Y-74468368D01*
X40034010Y-74711589D01*
X39922068Y-74981842D01*
X39865000Y-75268740D01*
X39865000Y-75561260D01*
X39922068Y-75848158D01*
X40034010Y-76118411D01*
X40196525Y-76361632D01*
X40403368Y-76568475D01*
X40577760Y-76685000D01*
X40403368Y-76801525D01*
X40196525Y-77008368D01*
X40034010Y-77251589D01*
X39922068Y-77521842D01*
X39865000Y-77808740D01*
X39865000Y-78101260D01*
X39922068Y-78388158D01*
X40034010Y-78658411D01*
X40196525Y-78901632D01*
X40403368Y-79108475D01*
X40577760Y-79225000D01*
X40403368Y-79341525D01*
X40196525Y-79548368D01*
X40034010Y-79791589D01*
X39922068Y-80061842D01*
X39865000Y-80348740D01*
X39865000Y-80641260D01*
X39922068Y-80928158D01*
X40034010Y-81198411D01*
X40196525Y-81441632D01*
X40403368Y-81648475D01*
X40577760Y-81765000D01*
X40403368Y-81881525D01*
X40196525Y-82088368D01*
X40034010Y-82331589D01*
X39922068Y-82601842D01*
X39865000Y-82888740D01*
X39865000Y-83181260D01*
X39922068Y-83468158D01*
X40034010Y-83738411D01*
X40196525Y-83981632D01*
X40390893Y-84176000D01*
X38760000Y-84176000D01*
X38760000Y-30632000D01*
X39970557Y-30632000D01*
X39960498Y-30650819D01*
%TA.AperFunction,Conductor*%
D20*
G36*
X39960498Y-30650819D02*
G01*
X39924188Y-30770517D01*
X39911928Y-30894999D01*
X39911928Y-32594999D01*
X39924188Y-32719481D01*
X39960498Y-32839179D01*
X40019463Y-32949493D01*
X40098815Y-33046184D01*
X40195506Y-33125536D01*
X40305820Y-33184501D01*
X40378380Y-33206512D01*
X40246525Y-33338367D01*
X40084010Y-33581588D01*
X39972068Y-33851841D01*
X39915000Y-34138739D01*
X39915000Y-34431259D01*
X39972068Y-34718157D01*
X40084010Y-34988410D01*
X40246525Y-35231631D01*
X40453368Y-35438474D01*
X40627760Y-35554999D01*
X40453368Y-35671524D01*
X40246525Y-35878367D01*
X40084010Y-36121588D01*
X39972068Y-36391841D01*
X39915000Y-36678739D01*
X39915000Y-36971259D01*
X39972068Y-37258157D01*
X40084010Y-37528410D01*
X40246525Y-37771631D01*
X40453368Y-37978474D01*
X40627760Y-38094999D01*
X40453368Y-38211524D01*
X40246525Y-38418367D01*
X40084010Y-38661588D01*
X39972068Y-38931841D01*
X39915000Y-39218739D01*
X39915000Y-39511259D01*
X39972068Y-39798157D01*
X40084010Y-40068410D01*
X40246525Y-40311631D01*
X40453368Y-40518474D01*
X40627760Y-40634999D01*
X40453368Y-40751524D01*
X40246525Y-40958367D01*
X40084010Y-41201588D01*
X39972068Y-41471841D01*
X39915000Y-41758739D01*
X39915000Y-42051259D01*
X39972068Y-42338157D01*
X40084010Y-42608410D01*
X40246525Y-42851631D01*
X40453368Y-43058474D01*
X40627760Y-43174999D01*
X40453368Y-43291524D01*
X40246525Y-43498367D01*
X40084010Y-43741588D01*
X39972068Y-44011841D01*
X39915000Y-44298739D01*
X39915000Y-44591259D01*
X39972068Y-44878157D01*
X40084010Y-45148410D01*
X40246525Y-45391631D01*
X40453368Y-45598474D01*
X40627760Y-45714999D01*
X40453368Y-45831524D01*
X40246525Y-46038367D01*
X40084010Y-46281588D01*
X39972068Y-46551841D01*
X39915000Y-46838739D01*
X39915000Y-47131259D01*
X39972068Y-47418157D01*
X40084010Y-47688410D01*
X40246525Y-47931631D01*
X40453368Y-48138474D01*
X40627760Y-48254999D01*
X40453368Y-48371524D01*
X40246525Y-48578367D01*
X40084010Y-48821588D01*
X39972068Y-49091841D01*
X39915000Y-49378739D01*
X39915000Y-49671259D01*
X39972068Y-49958157D01*
X40084010Y-50228410D01*
X40246525Y-50471631D01*
X40453368Y-50678474D01*
X40627760Y-50794999D01*
X40453368Y-50911524D01*
X40246525Y-51118367D01*
X40084010Y-51361588D01*
X39972068Y-51631841D01*
X39915000Y-51918739D01*
X39915000Y-52211259D01*
X39972068Y-52498157D01*
X40084010Y-52768410D01*
X40246525Y-53011631D01*
X40453368Y-53218474D01*
X40627760Y-53334999D01*
X40453368Y-53451524D01*
X40246525Y-53658367D01*
X40084010Y-53901588D01*
X39972068Y-54171841D01*
X39915000Y-54458739D01*
X39915000Y-54751259D01*
X39972068Y-55038157D01*
X40084010Y-55308410D01*
X40246525Y-55551631D01*
X40453368Y-55758474D01*
X40696589Y-55920989D01*
X40966842Y-56032931D01*
X41253740Y-56089999D01*
X41546260Y-56089999D01*
X41833158Y-56032931D01*
X42103411Y-55920989D01*
X42346632Y-55758474D01*
X42553475Y-55551631D01*
X42592471Y-55493268D01*
X70237814Y-55493268D01*
X70237814Y-55716844D01*
X70281431Y-55936123D01*
X70366990Y-56142680D01*
X70491202Y-56328576D01*
X70649294Y-56486668D01*
X70835190Y-56610880D01*
X71041747Y-56696439D01*
X71261026Y-56740056D01*
X71484602Y-56740056D01*
X71703881Y-56696439D01*
X71910438Y-56610880D01*
X72096334Y-56486668D01*
X72217946Y-56365056D01*
X75864255Y-56365056D01*
X76589000Y-57089802D01*
X76589000Y-57261788D01*
X76632617Y-57481067D01*
X76706734Y-57660000D01*
X75317325Y-57660000D01*
X75280000Y-57656324D01*
X75242675Y-57660000D01*
X75242667Y-57660000D01*
X75131014Y-57670997D01*
X74987753Y-57714454D01*
X74855724Y-57785026D01*
X74739999Y-57879999D01*
X74716201Y-57908997D01*
X72653801Y-59971398D01*
X72621637Y-59965000D01*
X72378363Y-59965000D01*
X72139764Y-60012460D01*
X71915008Y-60105557D01*
X71712733Y-60240713D01*
X71540713Y-60412733D01*
X71405557Y-60615008D01*
X71312460Y-60839764D01*
X71265000Y-61078363D01*
X71265000Y-61321637D01*
X71312460Y-61560236D01*
X71405557Y-61784992D01*
X71540713Y-61987267D01*
X71712733Y-62159287D01*
X71915008Y-62294443D01*
X72139764Y-62387540D01*
X72378363Y-62435000D01*
X72621637Y-62435000D01*
X72860236Y-62387540D01*
X73084992Y-62294443D01*
X73287267Y-62159287D01*
X73459287Y-61987267D01*
X73594443Y-61784992D01*
X73687540Y-61560236D01*
X73735000Y-61321637D01*
X73735000Y-61078363D01*
X73728602Y-61046199D01*
X75594802Y-59180000D01*
X76706734Y-59180000D01*
X76632617Y-59358933D01*
X76589000Y-59578212D01*
X76589000Y-59801788D01*
X76632617Y-60021067D01*
X76718176Y-60227624D01*
X76783241Y-60325000D01*
X76718176Y-60422376D01*
X76632617Y-60628933D01*
X76589000Y-60848212D01*
X76589000Y-61071788D01*
X76632617Y-61291067D01*
X76718176Y-61497624D01*
X76783241Y-61595000D01*
X76718176Y-61692376D01*
X76632617Y-61898933D01*
X76589000Y-62118212D01*
X76589000Y-62341788D01*
X76632617Y-62561067D01*
X76678888Y-62672774D01*
X76634498Y-62755820D01*
X76598188Y-62875518D01*
X76585928Y-63000000D01*
X76585928Y-64000000D01*
X76598188Y-64124482D01*
X76634498Y-64244180D01*
X76693463Y-64354494D01*
X76772815Y-64451185D01*
X76869506Y-64530537D01*
X76979820Y-64589502D01*
X77099518Y-64625812D01*
X77224000Y-64638072D01*
X78224000Y-64638072D01*
X78348482Y-64625812D01*
X78468180Y-64589502D01*
X78578494Y-64530537D01*
X78675185Y-64451185D01*
X78754537Y-64354494D01*
X78813502Y-64244180D01*
X78849812Y-64124482D01*
X78862072Y-64000000D01*
X78862072Y-63000000D01*
X78849812Y-62875518D01*
X78813502Y-62755820D01*
X78769112Y-62672774D01*
X78815383Y-62561067D01*
X78859000Y-62341788D01*
X78859000Y-62118212D01*
X78815383Y-61898933D01*
X78729824Y-61692376D01*
X78664759Y-61595000D01*
X78729824Y-61497624D01*
X78815383Y-61291067D01*
X78859000Y-61071788D01*
X78859000Y-60848212D01*
X78815383Y-60628933D01*
X78729824Y-60422376D01*
X78664759Y-60325000D01*
X78729824Y-60227624D01*
X78815383Y-60021067D01*
X78859000Y-59801788D01*
X78859000Y-59578212D01*
X78815383Y-59358933D01*
X78729824Y-59152376D01*
X78664759Y-59055000D01*
X78729824Y-58957624D01*
X78815383Y-58751067D01*
X78859000Y-58531788D01*
X78859000Y-58308212D01*
X78815383Y-58088933D01*
X78729824Y-57882376D01*
X78664759Y-57785000D01*
X78729824Y-57687624D01*
X78802068Y-57513212D01*
X79815000Y-57513212D01*
X79815000Y-57736788D01*
X79858617Y-57956067D01*
X79944176Y-58162624D01*
X80068388Y-58348520D01*
X80226480Y-58506612D01*
X80412376Y-58630824D01*
X80618933Y-58716383D01*
X80838212Y-58760000D01*
X81061788Y-58760000D01*
X81281067Y-58716383D01*
X81487624Y-58630824D01*
X81673520Y-58506612D01*
X81831612Y-58348520D01*
X81955824Y-58162624D01*
X82041383Y-57956067D01*
X82085000Y-57736788D01*
X82085000Y-57513212D01*
X82041383Y-57293933D01*
X82010000Y-57218168D01*
X82010000Y-55314801D01*
X82596199Y-54728602D01*
X82628363Y-54735000D01*
X82871637Y-54735000D01*
X83110236Y-54687540D01*
X83334992Y-54594443D01*
X83537267Y-54459287D01*
X83709287Y-54287267D01*
X83844443Y-54084992D01*
X83937540Y-53860236D01*
X83985000Y-53621637D01*
X83985000Y-53378363D01*
X83937540Y-53139764D01*
X83844443Y-52915008D01*
X83709287Y-52712733D01*
X83537267Y-52540713D01*
X83334992Y-52405557D01*
X83110236Y-52312460D01*
X82871637Y-52265000D01*
X82628363Y-52265000D01*
X82389764Y-52312460D01*
X82165008Y-52405557D01*
X81962733Y-52540713D01*
X81790713Y-52712733D01*
X81655557Y-52915008D01*
X81562460Y-53139764D01*
X81515000Y-53378363D01*
X81515000Y-53621637D01*
X81521398Y-53653801D01*
X80739003Y-54436196D01*
X80709999Y-54459999D01*
X80658303Y-54522991D01*
X80615026Y-54575724D01*
X80587673Y-54626898D01*
X80544454Y-54707754D01*
X80500997Y-54851015D01*
X80490000Y-54962668D01*
X80490000Y-54962678D01*
X80486324Y-55000000D01*
X80490000Y-55037323D01*
X80490001Y-56587023D01*
X80412376Y-56619176D01*
X80226480Y-56743388D01*
X80068388Y-56901480D01*
X79944176Y-57087376D01*
X79858617Y-57293933D01*
X79815000Y-57513212D01*
X78802068Y-57513212D01*
X78815383Y-57481067D01*
X78859000Y-57261788D01*
X78859000Y-57038212D01*
X78815383Y-56818933D01*
X78729824Y-56612376D01*
X78664759Y-56515000D01*
X78729824Y-56417624D01*
X78815383Y-56211067D01*
X78859000Y-55991788D01*
X78859000Y-55768212D01*
X78815383Y-55548933D01*
X78729824Y-55342376D01*
X78664759Y-55245000D01*
X78729824Y-55147624D01*
X78815383Y-54941067D01*
X78859000Y-54721788D01*
X78859000Y-54498212D01*
X78815383Y-54278933D01*
X78729824Y-54072376D01*
X78661647Y-53970342D01*
X78711123Y-53900206D01*
X78801446Y-53696864D01*
X78818119Y-53641874D01*
X78691954Y-53467000D01*
X77851000Y-53467000D01*
X77851000Y-53478026D01*
X77835788Y-53475000D01*
X77612212Y-53475000D01*
X77597000Y-53478026D01*
X77597000Y-53467000D01*
X76756046Y-53467000D01*
X76629881Y-53641874D01*
X76646554Y-53696864D01*
X76736877Y-53900206D01*
X76786353Y-53970342D01*
X76718176Y-54072376D01*
X76632617Y-54278933D01*
X76589000Y-54498212D01*
X76589000Y-54721788D01*
X76632617Y-54941067D01*
X76665907Y-55021436D01*
X76603332Y-54970082D01*
X76471303Y-54899510D01*
X76328042Y-54856053D01*
X76216389Y-54845056D01*
X76216378Y-54845056D01*
X76179056Y-54841380D01*
X76141734Y-54845056D01*
X72217946Y-54845056D01*
X72096334Y-54723444D01*
X71910438Y-54599232D01*
X71703881Y-54513673D01*
X71484602Y-54470056D01*
X71261026Y-54470056D01*
X71041747Y-54513673D01*
X70835190Y-54599232D01*
X70649294Y-54723444D01*
X70491202Y-54881536D01*
X70366990Y-55067432D01*
X70281431Y-55273989D01*
X70237814Y-55493268D01*
X42592471Y-55493268D01*
X42715990Y-55308410D01*
X42827932Y-55038157D01*
X42885000Y-54751259D01*
X42885000Y-54458739D01*
X42827932Y-54171841D01*
X42715990Y-53901588D01*
X42553475Y-53658367D01*
X42346632Y-53451524D01*
X42172240Y-53334999D01*
X42346632Y-53218474D01*
X42553475Y-53011631D01*
X42715990Y-52768410D01*
X42827932Y-52498157D01*
X42853051Y-52371874D01*
X76629881Y-52371874D01*
X76646554Y-52426864D01*
X76736877Y-52630206D01*
X76789639Y-52705000D01*
X76736877Y-52779794D01*
X76646554Y-52983136D01*
X76629881Y-53038126D01*
X76756046Y-53213000D01*
X77597000Y-53213000D01*
X77597000Y-52197000D01*
X77851000Y-52197000D01*
X77851000Y-53213000D01*
X78691954Y-53213000D01*
X78818119Y-53038126D01*
X78801446Y-52983136D01*
X78711123Y-52779794D01*
X78658361Y-52705000D01*
X78711123Y-52630206D01*
X78801446Y-52426864D01*
X78818119Y-52371874D01*
X78691954Y-52197000D01*
X77851000Y-52197000D01*
X77597000Y-52197000D01*
X76756046Y-52197000D01*
X76629881Y-52371874D01*
X42853051Y-52371874D01*
X42885000Y-52211259D01*
X42885000Y-51918739D01*
X42827932Y-51631841D01*
X42715990Y-51361588D01*
X42553475Y-51118367D01*
X42346632Y-50911524D01*
X42172240Y-50794999D01*
X42346632Y-50678474D01*
X42553475Y-50471631D01*
X42715990Y-50228410D01*
X42827932Y-49958157D01*
X42885000Y-49671259D01*
X42885000Y-49378739D01*
X42827932Y-49091841D01*
X42715990Y-48821588D01*
X42553475Y-48578367D01*
X42346632Y-48371524D01*
X42172240Y-48254999D01*
X42346632Y-48138474D01*
X42553475Y-47931631D01*
X42715990Y-47688410D01*
X42827932Y-47418157D01*
X42885000Y-47131259D01*
X42885000Y-46838739D01*
X42827932Y-46551841D01*
X42715990Y-46281588D01*
X42553475Y-46038367D01*
X42346632Y-45831524D01*
X42172240Y-45714999D01*
X42346632Y-45598474D01*
X42553475Y-45391631D01*
X42715990Y-45148410D01*
X42827932Y-44878157D01*
X42885000Y-44591259D01*
X42885000Y-44298739D01*
X42827932Y-44011841D01*
X42715990Y-43741588D01*
X42553475Y-43498367D01*
X42346632Y-43291524D01*
X42172240Y-43174999D01*
X42346632Y-43058474D01*
X42553475Y-42851631D01*
X42715990Y-42608410D01*
X42827932Y-42338157D01*
X42885000Y-42051259D01*
X42885000Y-41758739D01*
X42827932Y-41471841D01*
X42715990Y-41201588D01*
X42553475Y-40958367D01*
X42346632Y-40751524D01*
X42172240Y-40634999D01*
X42346632Y-40518474D01*
X42553475Y-40311631D01*
X42715990Y-40068410D01*
X42827932Y-39798157D01*
X42885000Y-39511259D01*
X42885000Y-39218739D01*
X42827932Y-38931841D01*
X42715990Y-38661588D01*
X42553475Y-38418367D01*
X42346632Y-38211524D01*
X42172240Y-38094999D01*
X42346632Y-37978474D01*
X42553475Y-37771631D01*
X42715990Y-37528410D01*
X42827932Y-37258157D01*
X42885000Y-36971259D01*
X42885000Y-36678739D01*
X42827932Y-36391841D01*
X42715990Y-36121588D01*
X42553475Y-35878367D01*
X42346632Y-35671524D01*
X42172240Y-35554999D01*
X42346632Y-35438474D01*
X42553475Y-35231631D01*
X42715990Y-34988410D01*
X42827932Y-34718157D01*
X42885000Y-34431259D01*
X42885000Y-34138739D01*
X42827932Y-33851841D01*
X42715990Y-33581588D01*
X42553475Y-33338367D01*
X42421620Y-33206512D01*
X42494180Y-33184501D01*
X42604494Y-33125536D01*
X42701185Y-33046184D01*
X42780537Y-32949493D01*
X42839502Y-32839179D01*
X42875812Y-32719481D01*
X42888072Y-32594999D01*
X42888072Y-30894999D01*
X42875812Y-30770517D01*
X42839502Y-30650819D01*
X42829443Y-30632000D01*
X54913609Y-30632000D01*
X54910498Y-30637820D01*
X54874188Y-30757518D01*
X54861928Y-30882000D01*
X54861928Y-32582000D01*
X54874188Y-32706482D01*
X54910498Y-32826180D01*
X54969463Y-32936494D01*
X55048815Y-33033185D01*
X55145506Y-33112537D01*
X55255820Y-33171502D01*
X55375518Y-33207812D01*
X55500000Y-33220072D01*
X55515000Y-33220072D01*
X55515001Y-36799970D01*
X55510960Y-36840998D01*
X55527082Y-37004686D01*
X55574828Y-37162084D01*
X55651753Y-37305999D01*
X55652365Y-37307144D01*
X55756710Y-37434289D01*
X55788574Y-37460439D01*
X56605000Y-38276867D01*
X56605001Y-40532974D01*
X56600960Y-40574002D01*
X56617082Y-40737690D01*
X56664828Y-40895088D01*
X56742364Y-41040147D01*
X56742365Y-41040148D01*
X56846710Y-41167293D01*
X56878574Y-41193443D01*
X59946561Y-44261432D01*
X59972707Y-44293291D01*
X60004566Y-44319437D01*
X60004568Y-44319439D01*
X60084455Y-44385000D01*
X60099852Y-44397636D01*
X60244911Y-44475172D01*
X60402309Y-44522918D01*
X60524979Y-44535000D01*
X60524980Y-44535000D01*
X60565998Y-44539040D01*
X60607016Y-44535000D01*
X61188446Y-44535000D01*
X61312733Y-44659287D01*
X61515008Y-44794443D01*
X61739764Y-44887540D01*
X61978363Y-44935000D01*
X62221637Y-44935000D01*
X62460236Y-44887540D01*
X62684992Y-44794443D01*
X62887267Y-44659287D01*
X63059287Y-44487267D01*
X63194443Y-44284992D01*
X63287540Y-44060236D01*
X63335000Y-43821637D01*
X63335000Y-43578363D01*
X63287540Y-43339764D01*
X63194443Y-43115008D01*
X63059287Y-42912733D01*
X62887267Y-42740713D01*
X62684992Y-42605557D01*
X62460236Y-42512460D01*
X62221637Y-42465000D01*
X61978363Y-42465000D01*
X61739764Y-42512460D01*
X61515008Y-42605557D01*
X61312733Y-42740713D01*
X61188446Y-42865000D01*
X60911867Y-42865000D01*
X58275000Y-40228135D01*
X58275000Y-37972016D01*
X58279040Y-37930998D01*
X58262918Y-37767310D01*
X58241595Y-37697015D01*
X58215172Y-37609911D01*
X58137636Y-37464852D01*
X58137564Y-37464764D01*
X58059439Y-37369568D01*
X58059437Y-37369566D01*
X58033291Y-37337707D01*
X58001433Y-37311562D01*
X57185000Y-36495131D01*
X57185000Y-33220072D01*
X57200000Y-33220072D01*
X57324482Y-33207812D01*
X57444180Y-33171502D01*
X57554494Y-33112537D01*
X57651185Y-33033185D01*
X57730537Y-32936494D01*
X57789502Y-32826180D01*
X57811513Y-32753620D01*
X57943368Y-32885475D01*
X58186589Y-33047990D01*
X58456842Y-33159932D01*
X58743740Y-33217000D01*
X59036260Y-33217000D01*
X59167940Y-33190807D01*
X59655001Y-33677869D01*
X59655002Y-36303000D01*
X59588061Y-36303000D01*
X59388102Y-36342774D01*
X59199744Y-36420795D01*
X59030226Y-36534063D01*
X58886063Y-36678226D01*
X58772795Y-36847744D01*
X58694774Y-37036102D01*
X58655000Y-37236061D01*
X58655000Y-37439939D01*
X58694774Y-37639898D01*
X58772795Y-37828256D01*
X58886063Y-37997774D01*
X59030226Y-38141937D01*
X59199744Y-38255205D01*
X59388102Y-38333226D01*
X59588061Y-38373000D01*
X59655002Y-38373000D01*
X59655002Y-39026975D01*
X59650961Y-39068003D01*
X59667083Y-39231691D01*
X59714829Y-39389089D01*
X59780131Y-39511259D01*
X59792366Y-39534149D01*
X59896711Y-39661294D01*
X59928575Y-39687444D01*
X67985568Y-47744438D01*
X68080852Y-47822636D01*
X68225911Y-47900171D01*
X68357210Y-47940000D01*
X63616007Y-47940000D01*
X63574999Y-47935961D01*
X63533991Y-47940000D01*
X63533981Y-47940000D01*
X63411311Y-47952082D01*
X63253913Y-47999828D01*
X63108854Y-48077364D01*
X62981709Y-48181709D01*
X62955554Y-48213579D01*
X62613574Y-48555559D01*
X62581710Y-48581709D01*
X62519302Y-48657754D01*
X62477364Y-48708855D01*
X62399828Y-48853914D01*
X62352082Y-49011312D01*
X62343447Y-49098986D01*
X62340054Y-49133438D01*
X62336781Y-49166665D01*
X62215713Y-49287733D01*
X62080557Y-49490008D01*
X61987460Y-49714764D01*
X61940000Y-49953363D01*
X61940000Y-50196637D01*
X61987460Y-50435236D01*
X62080557Y-50659992D01*
X62215713Y-50862267D01*
X62387733Y-51034287D01*
X62590008Y-51169443D01*
X62814764Y-51262540D01*
X63053363Y-51310000D01*
X63296637Y-51310000D01*
X63535236Y-51262540D01*
X63759992Y-51169443D01*
X63962267Y-51034287D01*
X64134287Y-50862267D01*
X64269443Y-50659992D01*
X64362540Y-50435236D01*
X64410000Y-50196637D01*
X64410000Y-49953363D01*
X64362540Y-49714764D01*
X64319145Y-49610000D01*
X67867312Y-49610000D01*
X67830557Y-49665008D01*
X67737460Y-49889764D01*
X67690000Y-50128363D01*
X67690000Y-50371637D01*
X67737460Y-50610236D01*
X67830557Y-50834992D01*
X67965713Y-51037267D01*
X68137733Y-51209287D01*
X68340008Y-51344443D01*
X68564764Y-51437540D01*
X68803363Y-51485000D01*
X69046637Y-51485000D01*
X69157292Y-51462990D01*
X69276014Y-51499003D01*
X69387667Y-51510000D01*
X69387675Y-51510000D01*
X69425000Y-51513676D01*
X69462325Y-51510000D01*
X73222494Y-51510000D01*
X73240713Y-51537267D01*
X73412733Y-51709287D01*
X73615008Y-51844443D01*
X73839764Y-51937540D01*
X74078363Y-51985000D01*
X74321637Y-51985000D01*
X74560236Y-51937540D01*
X74784992Y-51844443D01*
X74899208Y-51768126D01*
X76629881Y-51768126D01*
X76756046Y-51943000D01*
X77597000Y-51943000D01*
X77597000Y-51100871D01*
X77851000Y-51100871D01*
X77851000Y-51943000D01*
X78691954Y-51943000D01*
X78818119Y-51768126D01*
X78801446Y-51713136D01*
X78711123Y-51509794D01*
X78582865Y-51327980D01*
X78421601Y-51174682D01*
X78233529Y-51055790D01*
X78025876Y-50975874D01*
X77851000Y-51100871D01*
X77597000Y-51100871D01*
X77422124Y-50975874D01*
X77214471Y-51055790D01*
X77026399Y-51174682D01*
X76865135Y-51327980D01*
X76736877Y-51509794D01*
X76646554Y-51713136D01*
X76629881Y-51768126D01*
X74899208Y-51768126D01*
X74987267Y-51709287D01*
X75159287Y-51537267D01*
X75294443Y-51334992D01*
X75387540Y-51110236D01*
X75434729Y-50873000D01*
X80629135Y-50873000D01*
X80654774Y-51001898D01*
X80732795Y-51190256D01*
X80846063Y-51359774D01*
X80990226Y-51503937D01*
X81159744Y-51617205D01*
X81348102Y-51695226D01*
X81508983Y-51727227D01*
X81533865Y-51747647D01*
X81678924Y-51825183D01*
X81836322Y-51872929D01*
X81958992Y-51885011D01*
X81959002Y-51885011D01*
X82000010Y-51889050D01*
X82041018Y-51885011D01*
X89790188Y-51885011D01*
X89238987Y-52436212D01*
X89209989Y-52460010D01*
X89186191Y-52489008D01*
X89186190Y-52489009D01*
X89115015Y-52575735D01*
X89044443Y-52707765D01*
X89022594Y-52779794D01*
X89004639Y-52838988D01*
X89000987Y-52851026D01*
X88986313Y-53000011D01*
X88989990Y-53037343D01*
X88989989Y-57362666D01*
X88986313Y-57399989D01*
X88989989Y-57437311D01*
X88989989Y-57437321D01*
X89000986Y-57548974D01*
X89024048Y-57625000D01*
X89044443Y-57692235D01*
X89115015Y-57824265D01*
X89148447Y-57865001D01*
X89209988Y-57939990D01*
X89238992Y-57963793D01*
X92365000Y-61089802D01*
X92365000Y-61140000D01*
X91539802Y-61140000D01*
X91260000Y-60860199D01*
X91260000Y-60798061D01*
X91220226Y-60598102D01*
X91142205Y-60409744D01*
X91028937Y-60240226D01*
X90884774Y-60096063D01*
X90715256Y-59982795D01*
X90526898Y-59904774D01*
X90326939Y-59865000D01*
X90123061Y-59865000D01*
X89923102Y-59904774D01*
X89734744Y-59982795D01*
X89565226Y-60096063D01*
X89421063Y-60240226D01*
X89307795Y-60409744D01*
X89229774Y-60598102D01*
X89190000Y-60798061D01*
X89190000Y-61001939D01*
X89229774Y-61201898D01*
X89307795Y-61390256D01*
X89421063Y-61559774D01*
X89565226Y-61703937D01*
X89734744Y-61817205D01*
X89923102Y-61895226D01*
X90123061Y-61935000D01*
X90185199Y-61935000D01*
X90661200Y-62411002D01*
X90684999Y-62440001D01*
X90713997Y-62463799D01*
X90800724Y-62534974D01*
X90932753Y-62605546D01*
X91076014Y-62649003D01*
X91225000Y-62663677D01*
X91262333Y-62660000D01*
X100658201Y-62660000D01*
X102915001Y-64916801D01*
X102915000Y-73422494D01*
X102887733Y-73440713D01*
X102715713Y-73612733D01*
X102580557Y-73815008D01*
X102487460Y-74039764D01*
X102440000Y-74278363D01*
X102440000Y-74521637D01*
X102487460Y-74760236D01*
X102580557Y-74984992D01*
X102715713Y-75187267D01*
X102887733Y-75359287D01*
X103090008Y-75494443D01*
X103314764Y-75587540D01*
X103553363Y-75635000D01*
X103796637Y-75635000D01*
X104035236Y-75587540D01*
X104259992Y-75494443D01*
X104462267Y-75359287D01*
X104634287Y-75187267D01*
X104769443Y-74984992D01*
X104862540Y-74760236D01*
X104910000Y-74521637D01*
X104910000Y-74278363D01*
X104862540Y-74039764D01*
X104769443Y-73815008D01*
X104634287Y-73612733D01*
X104462267Y-73440713D01*
X104435000Y-73422494D01*
X104435000Y-64941890D01*
X110483524Y-64941890D01*
X110528175Y-65089099D01*
X110653359Y-65351920D01*
X110827412Y-65585269D01*
X111043645Y-65780178D01*
X111293748Y-65929157D01*
X111568109Y-66026481D01*
X111798000Y-65905814D01*
X111798000Y-64712000D01*
X110604845Y-64712000D01*
X110483524Y-64941890D01*
X104435000Y-64941890D01*
X104435000Y-64639320D01*
X104438676Y-64601997D01*
X104435000Y-64564674D01*
X104435000Y-64564665D01*
X104424003Y-64453012D01*
X104380546Y-64309751D01*
X104309974Y-64177722D01*
X104215001Y-64061997D01*
X104186003Y-64038199D01*
X101536806Y-61389003D01*
X101513003Y-61359999D01*
X101397278Y-61265026D01*
X101265249Y-61194454D01*
X101121988Y-61150997D01*
X101010335Y-61140000D01*
X101010324Y-61140000D01*
X100973002Y-61136324D01*
X100935680Y-61140000D01*
X95710000Y-61140000D01*
X95710000Y-60998061D01*
X95670226Y-60798102D01*
X95592205Y-60609744D01*
X95478937Y-60440226D01*
X95334774Y-60296063D01*
X95165256Y-60182795D01*
X94976898Y-60104774D01*
X94776939Y-60065000D01*
X94714802Y-60065000D01*
X90959999Y-56310198D01*
X90959999Y-55360000D01*
X91026939Y-55360000D01*
X91226898Y-55320226D01*
X91415256Y-55242205D01*
X91584774Y-55128937D01*
X91728937Y-54984774D01*
X91842205Y-54815256D01*
X91844610Y-54809450D01*
X91973061Y-54835000D01*
X92176939Y-54835000D01*
X92376898Y-54795226D01*
X92565256Y-54717205D01*
X92734774Y-54603937D01*
X92778711Y-54560000D01*
X101060199Y-54560000D01*
X109056201Y-62556003D01*
X109079999Y-62585001D01*
X109195724Y-62679974D01*
X109327753Y-62750546D01*
X109471014Y-62794003D01*
X109582667Y-62805000D01*
X109582677Y-62805000D01*
X109620000Y-62808676D01*
X109657323Y-62805000D01*
X110646822Y-62805000D01*
X110771525Y-62991632D01*
X110978368Y-63198475D01*
X111160534Y-63320195D01*
X111043645Y-63389822D01*
X110827412Y-63584731D01*
X110653359Y-63818080D01*
X110528175Y-64080901D01*
X110483524Y-64228110D01*
X110604845Y-64458000D01*
X111798000Y-64458000D01*
X111798000Y-64438000D01*
X112052000Y-64438000D01*
X112052000Y-64458000D01*
X112072000Y-64458000D01*
X112072000Y-64712000D01*
X112052000Y-64712000D01*
X112052000Y-65905814D01*
X112281891Y-66026481D01*
X112556252Y-65929157D01*
X112806355Y-65780178D01*
X113022588Y-65585269D01*
X113136144Y-65433027D01*
X113132142Y-84176000D01*
X42309107Y-84176000D01*
X42503475Y-83981632D01*
X42665990Y-83738411D01*
X42777932Y-83468158D01*
X42835000Y-83181260D01*
X42835000Y-82888740D01*
X42777932Y-82601842D01*
X42665990Y-82331589D01*
X42503475Y-82088368D01*
X42296632Y-81881525D01*
X42122240Y-81765000D01*
X42296632Y-81648475D01*
X42503475Y-81441632D01*
X42665990Y-81198411D01*
X42777932Y-80928158D01*
X42835000Y-80641260D01*
X42835000Y-80348740D01*
X42777932Y-80061842D01*
X42665990Y-79791589D01*
X42503475Y-79548368D01*
X42296632Y-79341525D01*
X42122240Y-79225000D01*
X42296632Y-79108475D01*
X42503475Y-78901632D01*
X42588087Y-78775000D01*
X56886928Y-78775000D01*
X56899188Y-78899482D01*
X56935498Y-79019180D01*
X56994463Y-79129494D01*
X57073815Y-79226185D01*
X57170506Y-79305537D01*
X57280820Y-79364502D01*
X57400518Y-79400812D01*
X57525000Y-79413072D01*
X58089250Y-79410000D01*
X58248000Y-79251250D01*
X58248000Y-78052000D01*
X58502000Y-78052000D01*
X58502000Y-79251250D01*
X58660750Y-79410000D01*
X59225000Y-79413072D01*
X59349482Y-79400812D01*
X59469180Y-79364502D01*
X59579494Y-79305537D01*
X59676185Y-79226185D01*
X59755537Y-79129494D01*
X59814502Y-79019180D01*
X59838966Y-78938534D01*
X59914731Y-79022588D01*
X60148080Y-79196641D01*
X60410901Y-79321825D01*
X60558110Y-79366476D01*
X60788000Y-79245155D01*
X60788000Y-78052000D01*
X58502000Y-78052000D01*
X58248000Y-78052000D01*
X57048750Y-78052000D01*
X56890000Y-78210750D01*
X56886928Y-78775000D01*
X42588087Y-78775000D01*
X42665990Y-78658411D01*
X42777932Y-78388158D01*
X42835000Y-78101260D01*
X42835000Y-77808740D01*
X42777932Y-77521842D01*
X42665990Y-77251589D01*
X42547998Y-77075000D01*
X56886928Y-77075000D01*
X56890000Y-77639250D01*
X57048750Y-77798000D01*
X58248000Y-77798000D01*
X58248000Y-76598750D01*
X58502000Y-76598750D01*
X58502000Y-77798000D01*
X60788000Y-77798000D01*
X60788000Y-76604845D01*
X61042000Y-76604845D01*
X61042000Y-77798000D01*
X61062000Y-77798000D01*
X61062000Y-78052000D01*
X61042000Y-78052000D01*
X61042000Y-79245155D01*
X61271890Y-79366476D01*
X61419099Y-79321825D01*
X61681920Y-79196641D01*
X61915269Y-79022588D01*
X62110178Y-78806355D01*
X62179805Y-78689466D01*
X62301525Y-78871632D01*
X62508368Y-79078475D01*
X62751589Y-79240990D01*
X63021842Y-79352932D01*
X63308740Y-79410000D01*
X63601260Y-79410000D01*
X63888158Y-79352932D01*
X64158411Y-79240990D01*
X64401632Y-79078475D01*
X64608475Y-78871632D01*
X64725000Y-78697240D01*
X64841525Y-78871632D01*
X65048368Y-79078475D01*
X65291589Y-79240990D01*
X65561842Y-79352932D01*
X65848740Y-79410000D01*
X66141260Y-79410000D01*
X66428158Y-79352932D01*
X66698411Y-79240990D01*
X66941632Y-79078475D01*
X67148475Y-78871632D01*
X67265000Y-78697240D01*
X67381525Y-78871632D01*
X67588368Y-79078475D01*
X67831589Y-79240990D01*
X68101842Y-79352932D01*
X68388740Y-79410000D01*
X68681260Y-79410000D01*
X68968158Y-79352932D01*
X69238411Y-79240990D01*
X69481632Y-79078475D01*
X69688475Y-78871632D01*
X69850990Y-78628411D01*
X69962932Y-78358158D01*
X70020000Y-78071260D01*
X70020000Y-77778740D01*
X69962932Y-77491842D01*
X69850990Y-77221589D01*
X69688475Y-76978368D01*
X69481632Y-76771525D01*
X69238411Y-76609010D01*
X68968158Y-76497068D01*
X68681260Y-76440000D01*
X68388740Y-76440000D01*
X68101842Y-76497068D01*
X67831589Y-76609010D01*
X67588368Y-76771525D01*
X67381525Y-76978368D01*
X67265000Y-77152760D01*
X67148475Y-76978368D01*
X66941632Y-76771525D01*
X66698411Y-76609010D01*
X66428158Y-76497068D01*
X66141260Y-76440000D01*
X65848740Y-76440000D01*
X65561842Y-76497068D01*
X65291589Y-76609010D01*
X65048368Y-76771525D01*
X64841525Y-76978368D01*
X64725000Y-77152760D01*
X64608475Y-76978368D01*
X64401632Y-76771525D01*
X64158411Y-76609010D01*
X63888158Y-76497068D01*
X63601260Y-76440000D01*
X63308740Y-76440000D01*
X63021842Y-76497068D01*
X62751589Y-76609010D01*
X62508368Y-76771525D01*
X62301525Y-76978368D01*
X62179805Y-77160534D01*
X62110178Y-77043645D01*
X61915269Y-76827412D01*
X61681920Y-76653359D01*
X61419099Y-76528175D01*
X61271890Y-76483524D01*
X61042000Y-76604845D01*
X60788000Y-76604845D01*
X60558110Y-76483524D01*
X60410901Y-76528175D01*
X60148080Y-76653359D01*
X59914731Y-76827412D01*
X59838966Y-76911466D01*
X59814502Y-76830820D01*
X59755537Y-76720506D01*
X59676185Y-76623815D01*
X59579494Y-76544463D01*
X59469180Y-76485498D01*
X59349482Y-76449188D01*
X59225000Y-76436928D01*
X58660750Y-76440000D01*
X58502000Y-76598750D01*
X58248000Y-76598750D01*
X58089250Y-76440000D01*
X57525000Y-76436928D01*
X57400518Y-76449188D01*
X57280820Y-76485498D01*
X57170506Y-76544463D01*
X57073815Y-76623815D01*
X56994463Y-76720506D01*
X56935498Y-76830820D01*
X56899188Y-76950518D01*
X56886928Y-77075000D01*
X42547998Y-77075000D01*
X42503475Y-77008368D01*
X42296632Y-76801525D01*
X42122240Y-76685000D01*
X42296632Y-76568475D01*
X42503475Y-76361632D01*
X42665990Y-76118411D01*
X42777932Y-75848158D01*
X42835000Y-75561260D01*
X42835000Y-75268740D01*
X42777932Y-74981842D01*
X42665990Y-74711589D01*
X42503475Y-74468368D01*
X42296632Y-74261525D01*
X42122240Y-74145000D01*
X42296632Y-74028475D01*
X42503475Y-73821632D01*
X42665990Y-73578411D01*
X42777932Y-73308158D01*
X42835000Y-73021260D01*
X42835000Y-72728740D01*
X42777932Y-72441842D01*
X42665990Y-72171589D01*
X42503475Y-71928368D01*
X42296632Y-71721525D01*
X42232036Y-71678363D01*
X59776900Y-71678363D01*
X59776900Y-71921637D01*
X59824360Y-72160236D01*
X59917457Y-72384992D01*
X60052613Y-72587267D01*
X60224633Y-72759287D01*
X60426908Y-72894443D01*
X60651664Y-72987540D01*
X60890263Y-73035000D01*
X61133537Y-73035000D01*
X61372136Y-72987540D01*
X61596892Y-72894443D01*
X61799167Y-72759287D01*
X61971187Y-72587267D01*
X62106343Y-72384992D01*
X62199440Y-72160236D01*
X62246900Y-71921637D01*
X62246900Y-71678363D01*
X62199440Y-71439764D01*
X62106343Y-71215008D01*
X61971187Y-71012733D01*
X61799167Y-70840713D01*
X61771900Y-70822494D01*
X61771900Y-66677901D01*
X61796438Y-66653363D01*
X73665000Y-66653363D01*
X73665000Y-66896637D01*
X73712460Y-67135236D01*
X73805557Y-67359992D01*
X73940713Y-67562267D01*
X74112733Y-67734287D01*
X74315008Y-67869443D01*
X74539764Y-67962540D01*
X74778363Y-68010000D01*
X74954133Y-68010000D01*
X75605559Y-68661427D01*
X75631710Y-68693292D01*
X75758855Y-68797637D01*
X75903914Y-68875173D01*
X76061312Y-68922919D01*
X76183982Y-68935001D01*
X76183992Y-68935001D01*
X76225000Y-68939040D01*
X76266008Y-68935001D01*
X79342983Y-68935001D01*
X79384001Y-68939041D01*
X79425019Y-68935001D01*
X79425020Y-68935001D01*
X79547690Y-68922919D01*
X79705088Y-68875173D01*
X79850147Y-68797637D01*
X79977292Y-68693292D01*
X80003447Y-68661422D01*
X82336559Y-66328312D01*
X82498102Y-66395226D01*
X82698061Y-66435000D01*
X82901939Y-66435000D01*
X83101898Y-66395226D01*
X83290256Y-66317205D01*
X83459774Y-66203937D01*
X83503711Y-66160000D01*
X83835680Y-66160000D01*
X83873002Y-66163676D01*
X83910324Y-66160000D01*
X83910335Y-66160000D01*
X84021988Y-66149003D01*
X84165249Y-66105546D01*
X84297278Y-66034974D01*
X84413003Y-65940001D01*
X84436806Y-65910997D01*
X87811003Y-62536801D01*
X87840001Y-62513003D01*
X87880382Y-62463799D01*
X87934974Y-62397279D01*
X88005546Y-62265249D01*
X88027163Y-62193986D01*
X88049003Y-62121988D01*
X88060000Y-62010335D01*
X88060000Y-62010326D01*
X88063676Y-61973003D01*
X88060000Y-61935680D01*
X88060000Y-61503711D01*
X88103937Y-61459774D01*
X88217205Y-61290256D01*
X88295226Y-61101898D01*
X88335000Y-60901939D01*
X88335000Y-60698061D01*
X88295226Y-60498102D01*
X88217205Y-60309744D01*
X88103937Y-60140226D01*
X87959774Y-59996063D01*
X87790256Y-59882795D01*
X87601898Y-59804774D01*
X87401939Y-59765000D01*
X87198061Y-59765000D01*
X86998102Y-59804774D01*
X86809744Y-59882795D01*
X86640226Y-59996063D01*
X86496063Y-60140226D01*
X86382795Y-60309744D01*
X86304774Y-60498102D01*
X86265000Y-60698061D01*
X86265000Y-60901939D01*
X86304774Y-61101898D01*
X86382795Y-61290256D01*
X86496063Y-61459774D01*
X86540001Y-61503712D01*
X86540001Y-61658199D01*
X85930956Y-62267245D01*
X85859774Y-62196063D01*
X85690256Y-62082795D01*
X85501898Y-62004774D01*
X85301939Y-61965000D01*
X85145868Y-61965000D01*
X84135000Y-60954133D01*
X84135000Y-60888212D01*
X84091383Y-60668933D01*
X84005824Y-60462376D01*
X83881612Y-60276480D01*
X83723520Y-60118388D01*
X83537624Y-59994176D01*
X83331067Y-59908617D01*
X83111788Y-59865000D01*
X82888212Y-59865000D01*
X82668933Y-59908617D01*
X82462376Y-59994176D01*
X82276480Y-60118388D01*
X82118388Y-60276480D01*
X81994176Y-60462376D01*
X81908617Y-60668933D01*
X81865000Y-60888212D01*
X81865000Y-61111788D01*
X81908617Y-61331067D01*
X81994176Y-61537624D01*
X82118388Y-61723520D01*
X82276480Y-61881612D01*
X82462376Y-62005824D01*
X82668933Y-62091383D01*
X82888212Y-62135000D01*
X82954133Y-62135000D01*
X83327131Y-62507999D01*
X81438578Y-64396553D01*
X81406708Y-64422708D01*
X81327311Y-64519455D01*
X81302363Y-64549854D01*
X81224827Y-64694913D01*
X81177081Y-64852311D01*
X81160959Y-65015999D01*
X81164999Y-65057017D01*
X81164999Y-65138134D01*
X80860000Y-65443133D01*
X80860000Y-61545132D01*
X80981612Y-61423520D01*
X81105824Y-61237624D01*
X81191383Y-61031067D01*
X81235000Y-60811788D01*
X81235000Y-60588212D01*
X81191383Y-60368933D01*
X81105824Y-60162376D01*
X80981612Y-59976480D01*
X80823520Y-59818388D01*
X80637624Y-59694176D01*
X80431067Y-59608617D01*
X80211788Y-59565000D01*
X79988212Y-59565000D01*
X79768933Y-59608617D01*
X79562376Y-59694176D01*
X79376480Y-59818388D01*
X79218388Y-59976480D01*
X79094176Y-60162376D01*
X79008617Y-60368933D01*
X78965000Y-60588212D01*
X78965000Y-60811788D01*
X79008617Y-61031067D01*
X79094176Y-61237624D01*
X79218388Y-61423520D01*
X79340000Y-61545132D01*
X79340001Y-65395500D01*
X79260236Y-65362460D01*
X79021637Y-65315000D01*
X78778363Y-65315000D01*
X78539764Y-65362460D01*
X78315008Y-65455557D01*
X78112733Y-65590713D01*
X77940713Y-65762733D01*
X77805557Y-65965008D01*
X77712460Y-66189764D01*
X77665000Y-66428363D01*
X77665000Y-66671637D01*
X77712460Y-66910236D01*
X77805557Y-67134992D01*
X77892426Y-67265001D01*
X76570869Y-67265001D01*
X76135000Y-66829133D01*
X76135000Y-66653363D01*
X76087540Y-66414764D01*
X75994443Y-66190008D01*
X75859287Y-65987733D01*
X75687267Y-65815713D01*
X75484992Y-65680557D01*
X75260236Y-65587460D01*
X75021637Y-65540000D01*
X74778363Y-65540000D01*
X74539764Y-65587460D01*
X74315008Y-65680557D01*
X74112733Y-65815713D01*
X73940713Y-65987733D01*
X73805557Y-66190008D01*
X73712460Y-66414764D01*
X73665000Y-66653363D01*
X61796438Y-66653363D01*
X61996199Y-66453602D01*
X62028363Y-66460000D01*
X62271637Y-66460000D01*
X62510236Y-66412540D01*
X62734992Y-66319443D01*
X62937267Y-66184287D01*
X63109287Y-66012267D01*
X63244443Y-65809992D01*
X63337540Y-65585236D01*
X63385000Y-65346637D01*
X63385000Y-65103363D01*
X63337540Y-64864764D01*
X63244443Y-64640008D01*
X63109287Y-64437733D01*
X62937267Y-64265713D01*
X62734992Y-64130557D01*
X62510236Y-64037460D01*
X62271637Y-63990000D01*
X62028363Y-63990000D01*
X61789764Y-64037460D01*
X61565008Y-64130557D01*
X61362733Y-64265713D01*
X61190713Y-64437733D01*
X61055557Y-64640008D01*
X60962460Y-64864764D01*
X60915000Y-65103363D01*
X60915000Y-65346637D01*
X60921398Y-65378801D01*
X60500902Y-65799297D01*
X60471899Y-65823099D01*
X60445687Y-65855039D01*
X60376926Y-65938824D01*
X60323382Y-66038998D01*
X60306354Y-66070854D01*
X60262897Y-66214115D01*
X60251900Y-66325768D01*
X60251900Y-66325778D01*
X60248224Y-66363100D01*
X60251900Y-66400423D01*
X60251901Y-70822493D01*
X60224633Y-70840713D01*
X60052613Y-71012733D01*
X59917457Y-71215008D01*
X59824360Y-71439764D01*
X59776900Y-71678363D01*
X42232036Y-71678363D01*
X42122240Y-71605000D01*
X42296632Y-71488475D01*
X42503475Y-71281632D01*
X42665990Y-71038411D01*
X42777932Y-70768158D01*
X42835000Y-70481260D01*
X42835000Y-70188740D01*
X42777932Y-69901842D01*
X42665990Y-69631589D01*
X42503475Y-69388368D01*
X42296632Y-69181525D01*
X42122240Y-69065000D01*
X42296632Y-68948475D01*
X42503475Y-68741632D01*
X42665990Y-68498411D01*
X42777932Y-68228158D01*
X42835000Y-67941260D01*
X42835000Y-67648740D01*
X42777932Y-67361842D01*
X42665990Y-67091589D01*
X42503475Y-66848368D01*
X42296632Y-66641525D01*
X42122240Y-66525000D01*
X42296632Y-66408475D01*
X42503475Y-66201632D01*
X42665990Y-65958411D01*
X42777932Y-65688158D01*
X42835000Y-65401260D01*
X42835000Y-65108740D01*
X42777932Y-64821842D01*
X42665990Y-64551589D01*
X42503475Y-64308368D01*
X42296632Y-64101525D01*
X42122240Y-63985000D01*
X42296632Y-63868475D01*
X42503475Y-63661632D01*
X42665990Y-63418411D01*
X42777932Y-63148158D01*
X42835000Y-62861260D01*
X42835000Y-62568740D01*
X42777932Y-62281842D01*
X42665990Y-62011589D01*
X42503475Y-61768368D01*
X42371620Y-61636513D01*
X42444180Y-61614502D01*
X42554494Y-61555537D01*
X42651185Y-61476185D01*
X42730537Y-61379494D01*
X42789502Y-61269180D01*
X42825812Y-61149482D01*
X42838072Y-61025000D01*
X42838072Y-59325000D01*
X42825812Y-59200518D01*
X42789502Y-59080820D01*
X42730537Y-58970506D01*
X42651185Y-58873815D01*
X42554494Y-58794463D01*
X42444180Y-58735498D01*
X42324482Y-58699188D01*
X42200000Y-58686928D01*
X40500000Y-58686928D01*
X40375518Y-58699188D01*
X40255820Y-58735498D01*
X40145506Y-58794463D01*
X40048815Y-58873815D01*
X39969463Y-58970506D01*
X39910498Y-59080820D01*
X39874188Y-59200518D01*
X39861928Y-59325000D01*
X39861928Y-61025000D01*
X39874188Y-61149482D01*
X39910498Y-61269180D01*
X39969463Y-61379494D01*
X40048815Y-61476185D01*
X40145506Y-61555537D01*
X40255820Y-61614502D01*
X40328380Y-61636513D01*
X40196525Y-61768368D01*
X40034010Y-62011589D01*
X39922068Y-62281842D01*
X39865000Y-62568740D01*
X39865000Y-62861260D01*
X39922068Y-63148158D01*
X40034010Y-63418411D01*
X40196525Y-63661632D01*
X40403368Y-63868475D01*
X40577760Y-63985000D01*
X40403368Y-64101525D01*
X40196525Y-64308368D01*
X40034010Y-64551589D01*
X39922068Y-64821842D01*
X39865000Y-65108740D01*
X39865000Y-65401260D01*
X39922068Y-65688158D01*
X40034010Y-65958411D01*
X40196525Y-66201632D01*
X40403368Y-66408475D01*
X40577760Y-66525000D01*
X40403368Y-66641525D01*
X40196525Y-66848368D01*
X40034010Y-67091589D01*
X39922068Y-67361842D01*
X39865000Y-67648740D01*
X39865000Y-67941260D01*
X39922068Y-68228158D01*
X40034010Y-68498411D01*
X40196525Y-68741632D01*
X40403368Y-68948475D01*
X40577760Y-69065000D01*
X40403368Y-69181525D01*
X40196525Y-69388368D01*
X40034010Y-69631589D01*
X39922068Y-69901842D01*
X39865000Y-70188740D01*
X39865000Y-70481260D01*
X39922068Y-70768158D01*
X40034010Y-71038411D01*
X40196525Y-71281632D01*
X40403368Y-71488475D01*
X40577760Y-71605000D01*
X40403368Y-71721525D01*
X40196525Y-71928368D01*
X40034010Y-72171589D01*
X39922068Y-72441842D01*
X39865000Y-72728740D01*
X39865000Y-73021260D01*
X39922068Y-73308158D01*
X40034010Y-73578411D01*
X40196525Y-73821632D01*
X40403368Y-74028475D01*
X40577760Y-74145000D01*
X40403368Y-74261525D01*
X40196525Y-74468368D01*
X40034010Y-74711589D01*
X39922068Y-74981842D01*
X39865000Y-75268740D01*
X39865000Y-75561260D01*
X39922068Y-75848158D01*
X40034010Y-76118411D01*
X40196525Y-76361632D01*
X40403368Y-76568475D01*
X40577760Y-76685000D01*
X40403368Y-76801525D01*
X40196525Y-77008368D01*
X40034010Y-77251589D01*
X39922068Y-77521842D01*
X39865000Y-77808740D01*
X39865000Y-78101260D01*
X39922068Y-78388158D01*
X40034010Y-78658411D01*
X40196525Y-78901632D01*
X40403368Y-79108475D01*
X40577760Y-79225000D01*
X40403368Y-79341525D01*
X40196525Y-79548368D01*
X40034010Y-79791589D01*
X39922068Y-80061842D01*
X39865000Y-80348740D01*
X39865000Y-80641260D01*
X39922068Y-80928158D01*
X40034010Y-81198411D01*
X40196525Y-81441632D01*
X40403368Y-81648475D01*
X40577760Y-81765000D01*
X40403368Y-81881525D01*
X40196525Y-82088368D01*
X40034010Y-82331589D01*
X39922068Y-82601842D01*
X39865000Y-82888740D01*
X39865000Y-83181260D01*
X39922068Y-83468158D01*
X40034010Y-83738411D01*
X40196525Y-83981632D01*
X40390893Y-84176000D01*
X38760000Y-84176000D01*
X38760000Y-30632000D01*
X39970557Y-30632000D01*
X39960498Y-30650819D01*
G37*
%TD.AperFunction*%
D19*
X73466152Y-49755020D02*
X73412733Y-49790713D01*
X73240713Y-49962733D01*
X73222494Y-49990000D01*
X70132478Y-49990000D01*
X70112540Y-49889764D01*
X70019443Y-49665008D01*
X69917284Y-49512116D01*
X69991146Y-49472636D01*
X70118291Y-49368291D01*
X70222636Y-49241146D01*
X70300172Y-49096087D01*
X70347918Y-48938689D01*
X70364040Y-48775000D01*
X70360000Y-48733981D01*
X70360000Y-48273587D01*
X70376898Y-48270226D01*
X70565256Y-48192205D01*
X70734774Y-48078937D01*
X70878937Y-47934774D01*
X70992205Y-47765256D01*
X71070226Y-47576898D01*
X71106362Y-47395229D01*
X73466152Y-49755020D01*
%TA.AperFunction,Conductor*%
D20*
G36*
X73466152Y-49755020D02*
G01*
X73412733Y-49790713D01*
X73240713Y-49962733D01*
X73222494Y-49990000D01*
X70132478Y-49990000D01*
X70112540Y-49889764D01*
X70019443Y-49665008D01*
X69917284Y-49512116D01*
X69991146Y-49472636D01*
X70118291Y-49368291D01*
X70222636Y-49241146D01*
X70300172Y-49096087D01*
X70347918Y-48938689D01*
X70364040Y-48775000D01*
X70360000Y-48733981D01*
X70360000Y-48273587D01*
X70376898Y-48270226D01*
X70565256Y-48192205D01*
X70734774Y-48078937D01*
X70878937Y-47934774D01*
X70992205Y-47765256D01*
X71070226Y-47576898D01*
X71106362Y-47395229D01*
X73466152Y-49755020D01*
G37*
%TD.AperFunction*%
D19*
X62978560Y-34461428D02*
X63004710Y-34493292D01*
X63131855Y-34597637D01*
X63276914Y-34675173D01*
X63434312Y-34722919D01*
X63556982Y-34735001D01*
X63556992Y-34735001D01*
X63598000Y-34739040D01*
X63639008Y-34735001D01*
X89348136Y-34735001D01*
X94865001Y-40251867D01*
X94865001Y-42125722D01*
X94759992Y-42055557D01*
X94535236Y-41962460D01*
X94296637Y-41915000D01*
X94053363Y-41915000D01*
X93814764Y-41962460D01*
X93590008Y-42055557D01*
X93387733Y-42190713D01*
X93215713Y-42362733D01*
X93080557Y-42565008D01*
X92987460Y-42789764D01*
X92940000Y-43028363D01*
X92940000Y-43271637D01*
X92987460Y-43510236D01*
X93080557Y-43734992D01*
X93215713Y-43937267D01*
X93340000Y-44061554D01*
X93340001Y-45513133D01*
X89238134Y-49615001D01*
X82929872Y-49615001D01*
X81992448Y-48677579D01*
X81966294Y-48645710D01*
X81839149Y-48541365D01*
X81694090Y-48463829D01*
X81536692Y-48416083D01*
X81414022Y-48404001D01*
X81414021Y-48404001D01*
X81373003Y-48399961D01*
X81331985Y-48404001D01*
X79424644Y-48404001D01*
X79435000Y-48351939D01*
X79435000Y-48148061D01*
X79395226Y-47948102D01*
X79317205Y-47759744D01*
X79203937Y-47590226D01*
X79059774Y-47446063D01*
X78890256Y-47332795D01*
X78701898Y-47254774D01*
X78501939Y-47215000D01*
X78298061Y-47215000D01*
X78098102Y-47254774D01*
X77909744Y-47332795D01*
X77740226Y-47446063D01*
X77596063Y-47590226D01*
X77536746Y-47679000D01*
X75275868Y-47679000D01*
X71271968Y-43675101D01*
X71275205Y-43670256D01*
X71353226Y-43481898D01*
X71393000Y-43281939D01*
X71393000Y-43078061D01*
X71353226Y-42878102D01*
X71275205Y-42689744D01*
X71161937Y-42520226D01*
X71118000Y-42476289D01*
X71118000Y-40954801D01*
X71688802Y-40384000D01*
X78524494Y-40384000D01*
X78542713Y-40411267D01*
X78714733Y-40583287D01*
X78917008Y-40718443D01*
X79141764Y-40811540D01*
X79380363Y-40859000D01*
X79623637Y-40859000D01*
X79862236Y-40811540D01*
X80086992Y-40718443D01*
X80289267Y-40583287D01*
X80461287Y-40411267D01*
X80596443Y-40208992D01*
X80689540Y-39984236D01*
X80737000Y-39745637D01*
X80737000Y-39502363D01*
X80689540Y-39263764D01*
X80596443Y-39039008D01*
X80475945Y-38858670D01*
X80587267Y-38784287D01*
X80759287Y-38612267D01*
X80894443Y-38409992D01*
X80987540Y-38185236D01*
X81015000Y-38047183D01*
X81015001Y-41204131D01*
X80804132Y-41415000D01*
X80628363Y-41415000D01*
X80389764Y-41462460D01*
X80165008Y-41555557D01*
X79962733Y-41690713D01*
X79790713Y-41862733D01*
X79655557Y-42065008D01*
X79562460Y-42289764D01*
X79515000Y-42528363D01*
X79515000Y-42771637D01*
X79562460Y-43010236D01*
X79655557Y-43234992D01*
X79790713Y-43437267D01*
X79962733Y-43609287D01*
X80165008Y-43744443D01*
X80389764Y-43837540D01*
X80628363Y-43885000D01*
X80871637Y-43885000D01*
X81110236Y-43837540D01*
X81334992Y-43744443D01*
X81537267Y-43609287D01*
X81709287Y-43437267D01*
X81844443Y-43234992D01*
X81937540Y-43010236D01*
X81985000Y-42771637D01*
X81985000Y-42595868D01*
X82411432Y-42169437D01*
X82443291Y-42143291D01*
X82487220Y-42089764D01*
X82547636Y-42016146D01*
X82625172Y-41871087D01*
X82672918Y-41713689D01*
X82689040Y-41550000D01*
X82685000Y-41508982D01*
X82685000Y-37361554D01*
X82809287Y-37237267D01*
X82944443Y-37034992D01*
X83037540Y-36810236D01*
X83085000Y-36571637D01*
X83085000Y-36328363D01*
X83037540Y-36089764D01*
X82944443Y-35865008D01*
X82809287Y-35662733D01*
X82637267Y-35490713D01*
X82434992Y-35355557D01*
X82210236Y-35262460D01*
X81971637Y-35215000D01*
X81728363Y-35215000D01*
X81489764Y-35262460D01*
X81265008Y-35355557D01*
X81062733Y-35490713D01*
X80890713Y-35662733D01*
X80755557Y-35865008D01*
X80662460Y-36089764D01*
X80615000Y-36328363D01*
X80615000Y-36571637D01*
X80662460Y-36810236D01*
X80754858Y-37033304D01*
X80587267Y-36865713D01*
X80384992Y-36730557D01*
X80160236Y-36637460D01*
X79921637Y-36590000D01*
X79678363Y-36590000D01*
X79439764Y-36637460D01*
X79215008Y-36730557D01*
X79012733Y-36865713D01*
X78840713Y-37037733D01*
X78822494Y-37065000D01*
X70416322Y-37065000D01*
X70378999Y-37061324D01*
X70341677Y-37065000D01*
X70341667Y-37065000D01*
X70230014Y-37075997D01*
X70086753Y-37119454D01*
X69954724Y-37190026D01*
X69838999Y-37284999D01*
X69815201Y-37313997D01*
X67666002Y-39463197D01*
X67665997Y-39463201D01*
X66763998Y-40365201D01*
X66735000Y-40388999D01*
X66711202Y-40417997D01*
X66711201Y-40417998D01*
X66640026Y-40504724D01*
X66569454Y-40636754D01*
X66555981Y-40681170D01*
X66525998Y-40780014D01*
X66516051Y-40881002D01*
X66511324Y-40929000D01*
X66515001Y-40966332D01*
X66515001Y-41472493D01*
X66487733Y-41490713D01*
X66315713Y-41662733D01*
X66180557Y-41865008D01*
X66087460Y-42089764D01*
X66040000Y-42328363D01*
X66040000Y-42571637D01*
X66087460Y-42810236D01*
X66180557Y-43034992D01*
X66315713Y-43237267D01*
X66487733Y-43409287D01*
X66690008Y-43544443D01*
X66914764Y-43637540D01*
X67153363Y-43685000D01*
X67396637Y-43685000D01*
X67635236Y-43637540D01*
X67859992Y-43544443D01*
X68062267Y-43409287D01*
X68234287Y-43237267D01*
X68369443Y-43034992D01*
X68462540Y-42810236D01*
X68510000Y-42571637D01*
X68510000Y-42328363D01*
X68462540Y-42089764D01*
X68369443Y-41865008D01*
X68234287Y-41662733D01*
X68062267Y-41490713D01*
X68035000Y-41472494D01*
X68035000Y-41243801D01*
X68740799Y-40538003D01*
X68740803Y-40537998D01*
X70693802Y-38585000D01*
X78822494Y-38585000D01*
X78826055Y-38590330D01*
X78714733Y-38664713D01*
X78542713Y-38836733D01*
X78524494Y-38864000D01*
X71411322Y-38864000D01*
X71374000Y-38860324D01*
X71336677Y-38864000D01*
X71336667Y-38864000D01*
X71225014Y-38874997D01*
X71081753Y-38918454D01*
X70949723Y-38989026D01*
X70866083Y-39057668D01*
X70833999Y-39083999D01*
X70810201Y-39112997D01*
X69847002Y-40076196D01*
X69817999Y-40099999D01*
X69762871Y-40167174D01*
X69723026Y-40215724D01*
X69652455Y-40347753D01*
X69652454Y-40347754D01*
X69608997Y-40491015D01*
X69598000Y-40602668D01*
X69598000Y-40602678D01*
X69594324Y-40640000D01*
X69598000Y-40677323D01*
X69598001Y-42476288D01*
X69554063Y-42520226D01*
X69440795Y-42689744D01*
X69362774Y-42878102D01*
X69323000Y-43078061D01*
X69323000Y-43187467D01*
X69189939Y-43161000D01*
X68986061Y-43161000D01*
X68786102Y-43200774D01*
X68597744Y-43278795D01*
X68428226Y-43392063D01*
X68284063Y-43536226D01*
X68170795Y-43705744D01*
X68092774Y-43894102D01*
X68053000Y-44094061D01*
X68053000Y-44297939D01*
X68092774Y-44497898D01*
X68170795Y-44686256D01*
X68284063Y-44855774D01*
X68428226Y-44999937D01*
X68597744Y-45113205D01*
X68786102Y-45191226D01*
X68931226Y-45220093D01*
X69954771Y-46243638D01*
X69773102Y-46279774D01*
X69584744Y-46357795D01*
X69573961Y-46365000D01*
X68967866Y-46365000D01*
X61325001Y-38722136D01*
X61325001Y-33373019D01*
X61329041Y-33332000D01*
X61317714Y-33217000D01*
X61576260Y-33217000D01*
X61707940Y-33190807D01*
X62978560Y-34461428D01*
%TA.AperFunction,Conductor*%
D20*
G36*
X62978560Y-34461428D02*
G01*
X63004710Y-34493292D01*
X63131855Y-34597637D01*
X63276914Y-34675173D01*
X63434312Y-34722919D01*
X63556982Y-34735001D01*
X63556992Y-34735001D01*
X63598000Y-34739040D01*
X63639008Y-34735001D01*
X89348136Y-34735001D01*
X94865001Y-40251867D01*
X94865001Y-42125722D01*
X94759992Y-42055557D01*
X94535236Y-41962460D01*
X94296637Y-41915000D01*
X94053363Y-41915000D01*
X93814764Y-41962460D01*
X93590008Y-42055557D01*
X93387733Y-42190713D01*
X93215713Y-42362733D01*
X93080557Y-42565008D01*
X92987460Y-42789764D01*
X92940000Y-43028363D01*
X92940000Y-43271637D01*
X92987460Y-43510236D01*
X93080557Y-43734992D01*
X93215713Y-43937267D01*
X93340000Y-44061554D01*
X93340001Y-45513133D01*
X89238134Y-49615001D01*
X82929872Y-49615001D01*
X81992448Y-48677579D01*
X81966294Y-48645710D01*
X81839149Y-48541365D01*
X81694090Y-48463829D01*
X81536692Y-48416083D01*
X81414022Y-48404001D01*
X81414021Y-48404001D01*
X81373003Y-48399961D01*
X81331985Y-48404001D01*
X79424644Y-48404001D01*
X79435000Y-48351939D01*
X79435000Y-48148061D01*
X79395226Y-47948102D01*
X79317205Y-47759744D01*
X79203937Y-47590226D01*
X79059774Y-47446063D01*
X78890256Y-47332795D01*
X78701898Y-47254774D01*
X78501939Y-47215000D01*
X78298061Y-47215000D01*
X78098102Y-47254774D01*
X77909744Y-47332795D01*
X77740226Y-47446063D01*
X77596063Y-47590226D01*
X77536746Y-47679000D01*
X75275868Y-47679000D01*
X71271968Y-43675101D01*
X71275205Y-43670256D01*
X71353226Y-43481898D01*
X71393000Y-43281939D01*
X71393000Y-43078061D01*
X71353226Y-42878102D01*
X71275205Y-42689744D01*
X71161937Y-42520226D01*
X71118000Y-42476289D01*
X71118000Y-40954801D01*
X71688802Y-40384000D01*
X78524494Y-40384000D01*
X78542713Y-40411267D01*
X78714733Y-40583287D01*
X78917008Y-40718443D01*
X79141764Y-40811540D01*
X79380363Y-40859000D01*
X79623637Y-40859000D01*
X79862236Y-40811540D01*
X80086992Y-40718443D01*
X80289267Y-40583287D01*
X80461287Y-40411267D01*
X80596443Y-40208992D01*
X80689540Y-39984236D01*
X80737000Y-39745637D01*
X80737000Y-39502363D01*
X80689540Y-39263764D01*
X80596443Y-39039008D01*
X80475945Y-38858670D01*
X80587267Y-38784287D01*
X80759287Y-38612267D01*
X80894443Y-38409992D01*
X80987540Y-38185236D01*
X81015000Y-38047183D01*
X81015001Y-41204131D01*
X80804132Y-41415000D01*
X80628363Y-41415000D01*
X80389764Y-41462460D01*
X80165008Y-41555557D01*
X79962733Y-41690713D01*
X79790713Y-41862733D01*
X79655557Y-42065008D01*
X79562460Y-42289764D01*
X79515000Y-42528363D01*
X79515000Y-42771637D01*
X79562460Y-43010236D01*
X79655557Y-43234992D01*
X79790713Y-43437267D01*
X79962733Y-43609287D01*
X80165008Y-43744443D01*
X80389764Y-43837540D01*
X80628363Y-43885000D01*
X80871637Y-43885000D01*
X81110236Y-43837540D01*
X81334992Y-43744443D01*
X81537267Y-43609287D01*
X81709287Y-43437267D01*
X81844443Y-43234992D01*
X81937540Y-43010236D01*
X81985000Y-42771637D01*
X81985000Y-42595868D01*
X82411432Y-42169437D01*
X82443291Y-42143291D01*
X82487220Y-42089764D01*
X82547636Y-42016146D01*
X82625172Y-41871087D01*
X82672918Y-41713689D01*
X82689040Y-41550000D01*
X82685000Y-41508982D01*
X82685000Y-37361554D01*
X82809287Y-37237267D01*
X82944443Y-37034992D01*
X83037540Y-36810236D01*
X83085000Y-36571637D01*
X83085000Y-36328363D01*
X83037540Y-36089764D01*
X82944443Y-35865008D01*
X82809287Y-35662733D01*
X82637267Y-35490713D01*
X82434992Y-35355557D01*
X82210236Y-35262460D01*
X81971637Y-35215000D01*
X81728363Y-35215000D01*
X81489764Y-35262460D01*
X81265008Y-35355557D01*
X81062733Y-35490713D01*
X80890713Y-35662733D01*
X80755557Y-35865008D01*
X80662460Y-36089764D01*
X80615000Y-36328363D01*
X80615000Y-36571637D01*
X80662460Y-36810236D01*
X80754858Y-37033304D01*
X80587267Y-36865713D01*
X80384992Y-36730557D01*
X80160236Y-36637460D01*
X79921637Y-36590000D01*
X79678363Y-36590000D01*
X79439764Y-36637460D01*
X79215008Y-36730557D01*
X79012733Y-36865713D01*
X78840713Y-37037733D01*
X78822494Y-37065000D01*
X70416322Y-37065000D01*
X70378999Y-37061324D01*
X70341677Y-37065000D01*
X70341667Y-37065000D01*
X70230014Y-37075997D01*
X70086753Y-37119454D01*
X69954724Y-37190026D01*
X69838999Y-37284999D01*
X69815201Y-37313997D01*
X67666002Y-39463197D01*
X67665997Y-39463201D01*
X66763998Y-40365201D01*
X66735000Y-40388999D01*
X66711202Y-40417997D01*
X66711201Y-40417998D01*
X66640026Y-40504724D01*
X66569454Y-40636754D01*
X66555981Y-40681170D01*
X66525998Y-40780014D01*
X66516051Y-40881002D01*
X66511324Y-40929000D01*
X66515001Y-40966332D01*
X66515001Y-41472493D01*
X66487733Y-41490713D01*
X66315713Y-41662733D01*
X66180557Y-41865008D01*
X66087460Y-42089764D01*
X66040000Y-42328363D01*
X66040000Y-42571637D01*
X66087460Y-42810236D01*
X66180557Y-43034992D01*
X66315713Y-43237267D01*
X66487733Y-43409287D01*
X66690008Y-43544443D01*
X66914764Y-43637540D01*
X67153363Y-43685000D01*
X67396637Y-43685000D01*
X67635236Y-43637540D01*
X67859992Y-43544443D01*
X68062267Y-43409287D01*
X68234287Y-43237267D01*
X68369443Y-43034992D01*
X68462540Y-42810236D01*
X68510000Y-42571637D01*
X68510000Y-42328363D01*
X68462540Y-42089764D01*
X68369443Y-41865008D01*
X68234287Y-41662733D01*
X68062267Y-41490713D01*
X68035000Y-41472494D01*
X68035000Y-41243801D01*
X68740799Y-40538003D01*
X68740803Y-40537998D01*
X70693802Y-38585000D01*
X78822494Y-38585000D01*
X78826055Y-38590330D01*
X78714733Y-38664713D01*
X78542713Y-38836733D01*
X78524494Y-38864000D01*
X71411322Y-38864000D01*
X71374000Y-38860324D01*
X71336677Y-38864000D01*
X71336667Y-38864000D01*
X71225014Y-38874997D01*
X71081753Y-38918454D01*
X70949723Y-38989026D01*
X70866083Y-39057668D01*
X70833999Y-39083999D01*
X70810201Y-39112997D01*
X69847002Y-40076196D01*
X69817999Y-40099999D01*
X69762871Y-40167174D01*
X69723026Y-40215724D01*
X69652455Y-40347753D01*
X69652454Y-40347754D01*
X69608997Y-40491015D01*
X69598000Y-40602668D01*
X69598000Y-40602678D01*
X69594324Y-40640000D01*
X69598000Y-40677323D01*
X69598001Y-42476288D01*
X69554063Y-42520226D01*
X69440795Y-42689744D01*
X69362774Y-42878102D01*
X69323000Y-43078061D01*
X69323000Y-43187467D01*
X69189939Y-43161000D01*
X68986061Y-43161000D01*
X68786102Y-43200774D01*
X68597744Y-43278795D01*
X68428226Y-43392063D01*
X68284063Y-43536226D01*
X68170795Y-43705744D01*
X68092774Y-43894102D01*
X68053000Y-44094061D01*
X68053000Y-44297939D01*
X68092774Y-44497898D01*
X68170795Y-44686256D01*
X68284063Y-44855774D01*
X68428226Y-44999937D01*
X68597744Y-45113205D01*
X68786102Y-45191226D01*
X68931226Y-45220093D01*
X69954771Y-46243638D01*
X69773102Y-46279774D01*
X69584744Y-46357795D01*
X69573961Y-46365000D01*
X68967866Y-46365000D01*
X61325001Y-38722136D01*
X61325001Y-33373019D01*
X61329041Y-33332000D01*
X61317714Y-33217000D01*
X61576260Y-33217000D01*
X61707940Y-33190807D01*
X62978560Y-34461428D01*
G37*
%TD.AperFunction*%
D19*
X96260347Y-30650819D02*
X96222707Y-30681709D01*
X96196561Y-30713568D01*
X95138574Y-31771557D01*
X95106710Y-31797707D01*
X95080562Y-31829569D01*
X95002364Y-31924853D01*
X94924828Y-32069912D01*
X94877082Y-32227310D01*
X94860960Y-32390998D01*
X94865001Y-32432026D01*
X94865000Y-37890131D01*
X90313449Y-33338580D01*
X90287294Y-33306710D01*
X90160149Y-33202365D01*
X90104577Y-33172661D01*
X90249099Y-33128825D01*
X90511920Y-33003641D01*
X90745269Y-32829588D01*
X90940178Y-32613355D01*
X91015000Y-32487745D01*
X91089822Y-32613355D01*
X91284731Y-32829588D01*
X91518080Y-33003641D01*
X91780901Y-33128825D01*
X91928110Y-33173476D01*
X92158000Y-33052155D01*
X92158000Y-31859000D01*
X92412000Y-31859000D01*
X92412000Y-33052155D01*
X92641890Y-33173476D01*
X92789099Y-33128825D01*
X93051920Y-33003641D01*
X93285269Y-32829588D01*
X93480178Y-32613355D01*
X93629157Y-32363252D01*
X93726481Y-32088891D01*
X93605814Y-31859000D01*
X92412000Y-31859000D01*
X92158000Y-31859000D01*
X89872000Y-31859000D01*
X89872000Y-31879000D01*
X89618000Y-31879000D01*
X89618000Y-31859000D01*
X89598000Y-31859000D01*
X89598000Y-31605000D01*
X89618000Y-31605000D01*
X89618000Y-31585000D01*
X89872000Y-31585000D01*
X89872000Y-31605000D01*
X92158000Y-31605000D01*
X92158000Y-31585000D01*
X92412000Y-31585000D01*
X92412000Y-31605000D01*
X93605814Y-31605000D01*
X93726481Y-31375109D01*
X93629157Y-31100748D01*
X93480178Y-30850645D01*
X93285269Y-30634412D01*
X93282035Y-30632000D01*
X96283278Y-30632000D01*
X96260347Y-30650819D01*
%TA.AperFunction,Conductor*%
D20*
G36*
X96260347Y-30650819D02*
G01*
X96222707Y-30681709D01*
X96196561Y-30713568D01*
X95138574Y-31771557D01*
X95106710Y-31797707D01*
X95080562Y-31829569D01*
X95002364Y-31924853D01*
X94924828Y-32069912D01*
X94877082Y-32227310D01*
X94860960Y-32390998D01*
X94865001Y-32432026D01*
X94865000Y-37890131D01*
X90313449Y-33338580D01*
X90287294Y-33306710D01*
X90160149Y-33202365D01*
X90104577Y-33172661D01*
X90249099Y-33128825D01*
X90511920Y-33003641D01*
X90745269Y-32829588D01*
X90940178Y-32613355D01*
X91015000Y-32487745D01*
X91089822Y-32613355D01*
X91284731Y-32829588D01*
X91518080Y-33003641D01*
X91780901Y-33128825D01*
X91928110Y-33173476D01*
X92158000Y-33052155D01*
X92158000Y-31859000D01*
X92412000Y-31859000D01*
X92412000Y-33052155D01*
X92641890Y-33173476D01*
X92789099Y-33128825D01*
X93051920Y-33003641D01*
X93285269Y-32829588D01*
X93480178Y-32613355D01*
X93629157Y-32363252D01*
X93726481Y-32088891D01*
X93605814Y-31859000D01*
X92412000Y-31859000D01*
X92158000Y-31859000D01*
X89872000Y-31859000D01*
X89872000Y-31879000D01*
X89618000Y-31879000D01*
X89618000Y-31859000D01*
X89598000Y-31859000D01*
X89598000Y-31605000D01*
X89618000Y-31605000D01*
X89618000Y-31585000D01*
X89872000Y-31585000D01*
X89872000Y-31605000D01*
X92158000Y-31605000D01*
X92158000Y-31585000D01*
X92412000Y-31585000D01*
X92412000Y-31605000D01*
X93605814Y-31605000D01*
X93726481Y-31375109D01*
X93629157Y-31100748D01*
X93480178Y-30850645D01*
X93285269Y-30634412D01*
X93282035Y-30632000D01*
X96283278Y-30632000D01*
X96260347Y-30650819D01*
G37*
%TD.AperFunction*%
D19*
X80685498Y-30637820D02*
X80649188Y-30757518D01*
X80636928Y-30882000D01*
X80636928Y-32582000D01*
X80649188Y-32706482D01*
X80685498Y-32826180D01*
X80744463Y-32936494D01*
X80823815Y-33033185D01*
X80862583Y-33065001D01*
X67148096Y-33065001D01*
X67276920Y-33003641D01*
X67510269Y-32829588D01*
X67705178Y-32613355D01*
X67854157Y-32363252D01*
X67951481Y-32088891D01*
X67830814Y-31859000D01*
X66637000Y-31859000D01*
X66637000Y-31879000D01*
X66383000Y-31879000D01*
X66383000Y-31859000D01*
X64097000Y-31859000D01*
X64097000Y-31879000D01*
X63843000Y-31879000D01*
X63843000Y-31859000D01*
X63823000Y-31859000D01*
X63823000Y-31605000D01*
X63843000Y-31605000D01*
X63843000Y-31585000D01*
X64097000Y-31585000D01*
X64097000Y-31605000D01*
X66383000Y-31605000D01*
X66383000Y-31585000D01*
X66637000Y-31585000D01*
X66637000Y-31605000D01*
X67830814Y-31605000D01*
X67951481Y-31375109D01*
X67854157Y-31100748D01*
X67705178Y-30850645D01*
X67510269Y-30634412D01*
X67507035Y-30632000D01*
X80688609Y-30632000D01*
X80685498Y-30637820D01*
%TA.AperFunction,Conductor*%
D20*
G36*
X80685498Y-30637820D02*
G01*
X80649188Y-30757518D01*
X80636928Y-30882000D01*
X80636928Y-32582000D01*
X80649188Y-32706482D01*
X80685498Y-32826180D01*
X80744463Y-32936494D01*
X80823815Y-33033185D01*
X80862583Y-33065001D01*
X67148096Y-33065001D01*
X67276920Y-33003641D01*
X67510269Y-32829588D01*
X67705178Y-32613355D01*
X67854157Y-32363252D01*
X67951481Y-32088891D01*
X67830814Y-31859000D01*
X66637000Y-31859000D01*
X66637000Y-31879000D01*
X66383000Y-31879000D01*
X66383000Y-31859000D01*
X64097000Y-31859000D01*
X64097000Y-31879000D01*
X63843000Y-31879000D01*
X63843000Y-31859000D01*
X63823000Y-31859000D01*
X63823000Y-31605000D01*
X63843000Y-31605000D01*
X63843000Y-31585000D01*
X64097000Y-31585000D01*
X64097000Y-31605000D01*
X66383000Y-31605000D01*
X66383000Y-31585000D01*
X66637000Y-31585000D01*
X66637000Y-31605000D01*
X67830814Y-31605000D01*
X67951481Y-31375109D01*
X67854157Y-31100748D01*
X67705178Y-30850645D01*
X67510269Y-30634412D01*
X67507035Y-30632000D01*
X80688609Y-30632000D01*
X80685498Y-30637820D01*
G37*
%TD.AperFunction*%
%TD*%
M02*
