M48
; DRILL file {KiCad 5.1.9-73d0e3b20d~88~ubuntu20.04.1} date Thu Apr 29 12:20:53 2021
; FORMAT={-:-/ absolute / inch / decimal}
; #@! TF.CreationDate,2021-04-29T12:20:53+03:00
; #@! TF.GenerationSoftware,Kicad,Pcbnew,5.1.9-73d0e3b20d~88~ubuntu20.04.1
FMAT,2
INCH
T1C0.0157
T2C0.0256
T3C0.0394
%
G90
G05
T1
X2.0335Y-1.55
X2.0335Y-2.3681
X2.034Y-2.4685
X2.034Y-2.5689
X2.034Y-2.6685
X2.034Y-2.7693
X2.034Y-2.8689
X2.034Y-2.968
X2.034Y-3.0689
X2.034Y-3.1695
X2.034Y-3.266
X2.0344Y-1.6496
X2.0344Y-1.7488
X2.0344Y-2.0482
X2.0354Y-1.3488
X2.0354Y-1.4498
X2.0354Y-1.8484
X2.0354Y-1.9478
X2.0354Y-2.152
X2.2077Y-1.4862
X2.35Y-1.47
X2.3768Y-1.6661
X2.402Y-2.8268
X2.4449Y-1.7205
X2.4469Y-2.5679
X2.4872Y-1.9715
X2.6486Y-1.6713
X2.6781Y-1.7825
X2.6969Y-2.563
X2.7136Y-1.9783
X2.72Y-1.74
X2.73Y-1.67
X2.7589Y-1.8612
X2.77Y-1.7
X2.7904Y-1.939
X2.7992Y-2.4528
X2.81Y-2.1892
X2.8307Y-2.6781
X2.8543Y-2.4094
X2.9213Y-1.998
X2.9488Y-2.6289
X3.0866Y-1.8996
X3.1063Y-2.6201
X3.13Y-1.56
X3.1417Y-1.4892
X3.1535Y-2.3898
X3.1703Y-2.7274
X3.1791Y-1.6791
X3.187Y-2.2687
X3.2146Y-1.9961
X3.2224Y-1.435
X3.2276Y-1.8917
X3.2579Y-2.1063
X3.2598Y-2.5748
X3.2677Y-2.4016
X3.3543Y-2.4803
X3.3996Y-2.7087
X3.437Y-2.3937
X3.4547Y-1.7037
X3.5118Y-1.9547
X3.5522Y-2.3976
X3.5571Y-1.6654
X3.5797Y-2.1388
X3.5984Y-1.9646
X3.625Y-2.1181
X3.6772Y-2.4035
X3.6909Y-1.9291
X3.7077Y-1.6988
X3.7274Y-2.4055
X3.749Y-1.9272
X3.7589Y-1.8031
X3.8287Y-1.2776
X3.8425Y-2.4823
X3.9449Y-1.8898
X3.9803Y-2.5197
X4.0817Y-2.9291
X4.247Y-1.2313
T2
X3.06Y-2.05
X3.06Y-2.1
X3.06Y-2.15
X3.06Y-2.2
X3.06Y-2.25
X3.06Y-2.3
X3.06Y-2.35
X3.06Y-2.4
X3.06Y-2.45
X3.06Y-2.5
T3
X1.628Y-2.3691
X1.628Y-2.4691
X1.628Y-2.5691
X1.628Y-2.6691
X1.628Y-2.7691
X1.628Y-2.8691
X1.628Y-2.9691
X1.628Y-3.0691
X1.628Y-3.1691
X1.628Y-3.2691
X1.6299Y-1.2498
X1.6299Y-1.3498
X1.6299Y-1.4498
X1.6299Y-1.5498
X1.6299Y-1.6498
X1.6299Y-1.7498
X1.6299Y-1.8498
X1.6299Y-1.9498
X1.6299Y-2.0498
X1.6299Y-2.1498
X2.2185Y-1.2493
X2.2982Y-3.0679
X2.3185Y-1.2493
X2.3982Y-3.0679
X2.4185Y-1.2493
X2.4982Y-3.0679
X2.5185Y-1.2493
X2.5982Y-3.0679
X2.6185Y-1.2493
X2.6982Y-3.0679
X3.2333Y-1.2493
X3.3333Y-1.2493
X3.4333Y-1.2493
X3.5333Y-1.2493
X3.6333Y-1.2493
X4.4065Y-2.1427
X4.4065Y-2.2427
X4.4065Y-2.3427
X4.4065Y-2.4427
X4.4065Y-2.5427
T0
M30
